<?xml version="1.0" encoding="UTF-8" standalone="no"?>
<!DOCTYPE svg PUBLIC "-//W3C//DTD SVG 1.1//EN" "http://www.w3.org/Graphics/SVG/1.1/DTD/svg11.dtd">
<svg version="1.1" xmlns="http://www.w3.org/2000/svg" xmlns:xlink="http://www.w3.org/1999/xlink" preserveAspectRatio="xMidYMid meet" viewBox="0 0 1850 600" width="1850" height="600"><defs><path d="M468.73 55.98C492.63 56.29 530.21 82.46 529.95 117.75C529.7 153.06 529.95 457.9 529.95 492.96C529.95 527.99 503.42 555.08 464.68 554.96C342.2 554.73 131.24 555.31 97.36 554.96C63.45 554.59 30.91 524.87 31.25 492.96C31.63 461.06 31.37 367.78 31.37 305.07C31.37 243.07 29.93 153.01 31.37 118.95C32.83 84.9 66.77 55.98 96.3 55.98C125.85 55.98 444.8 55.69 468.73 55.98Z" id="bvGf4RDZ9"></path><path d="M468.73 55.98C492.63 56.29 530.21 82.46 529.95 117.75C529.7 153.06 529.95 457.9 529.95 492.96C529.95 527.99 503.42 555.08 464.68 554.96C342.2 554.73 131.24 555.31 97.36 554.96C63.45 554.59 30.91 524.87 31.25 492.96C31.63 461.06 31.37 367.78 31.37 305.07C31.37 243.07 29.93 153.01 31.37 118.95C32.83 84.9 66.77 55.98 96.3 55.98C125.85 55.98 444.8 55.69 468.73 55.98Z" id="b19AE4nBfX"></path><path d="M461.3 66.91C492.08 66.91 514.58 86.13 519.57 116.46C520.14 119.64 520.03 122.8 520.03 126.1C520.03 245.99 520.03 365.86 520.03 485.73C520.03 522.11 494.58 545.29 457.42 545.18C339.97 544.95 222.62 544.83 105.13 545.18C68.01 545.29 41.87 522.34 41.76 485.73C41.87 425.77 41.87 365.75 41.87 305.64C41.87 246.22 41.87 186.69 41.87 127.27C41.87 90.78 65.83 66.91 102.29 66.91C221.93 66.91 341.66 66.91 461.3 66.91Z" id="a7gQGszshN"></path><path d="M461.3 66.91C492.08 66.91 514.58 86.13 519.57 116.46C520.14 119.64 520.03 122.8 520.03 126.1C520.03 245.99 520.03 365.86 520.03 485.73C520.03 522.11 494.58 545.29 457.42 545.18C339.97 544.95 222.62 544.83 105.13 545.18C68.01 545.29 41.87 522.34 41.76 485.73C41.87 425.77 41.87 365.75 41.87 305.64C41.87 246.22 41.87 186.69 41.87 127.27C41.87 90.78 65.83 66.91 102.29 66.91C221.93 66.91 341.66 66.91 461.3 66.91Z" id="a1SgvHLQDO"></path><path d="M920.12 286.99C921.58 290.03 922.84 293.1 924.31 296.52C928.84 290.84 933.06 285.39 937.48 280.05C962.15 250.73 1001.34 239.48 1035.2 252.22C1060.96 261.86 1073.7 281.86 1079.26 307.65C1081.42 317.89 1082.1 328.34 1082.1 338.66C1082.22 386.72 1081.99 434.89 1082.33 482.95C1082.33 489.09 1080.3 489.52 1073.01 488.86C1064.72 488.06 1056.43 488.17 1048.13 488.97C1042.34 489.52 1041.22 488.29 1041.22 483.64C1041.31 436.47 1041.31 389.33 1041.31 342.19C1041.31 331.18 1040.42 320.27 1036.2 309.92C1026.9 286.76 1004.07 277.09 980.77 286.42C963.04 293.45 950.56 306.53 938.74 320.82C932.14 328.79 929.53 337.2 929.76 347.76C930.33 392.86 929.87 437.85 930.1 482.95C930.1 489.75 927.72 489.63 917.94 488.51C911.48 487.83 904.77 487.83 898.28 488.63C890.45 489.63 888.87 488.97 888.99 483.64C889.1 436.47 889.1 389.33 889.1 342.19C889.1 331.18 888.18 320.27 883.97 309.92C874.9 287.31 853.99 277.9 830.26 285.84C811.84 291.98 799.01 305.04 786.85 319.36C780.02 327.42 777.41 335.94 777.53 346.73C778.1 392.17 777.64 437.62 777.87 483.06C777.87 489.09 776.18 490.09 765.93 488.4C760.17 487.37 754.14 487.37 748.23 488.4C738.1 490.09 736.76 488.86 736.76 483.06C736.87 410.13 736.87 337.32 736.87 264.38C736.87 252.68 736.87 252.68 748.81 252.68C756.41 252.68 763.9 252.91 771.5 252.56C775.72 252.33 776.52 253.8 776.41 257.67C776.06 268.46 776.18 279.36 776.18 291.64C783.67 281.97 790.49 273.57 799.13 266.77C824.12 247.11 851.83 242.21 881.82 251.99C899.66 257.79 911.94 270.27 920.12 286.99Z" id="b3iX4H5PJ"></path><path d="M920.12 286.99C921.58 290.03 922.84 293.1 924.31 296.52C928.84 290.84 933.06 285.39 937.48 280.05C962.15 250.73 1001.34 239.48 1035.2 252.22C1060.96 261.86 1073.7 281.86 1079.26 307.65C1081.42 317.89 1082.1 328.34 1082.1 338.66C1082.22 386.72 1081.99 434.89 1082.33 482.95C1082.33 489.09 1080.3 489.52 1073.01 488.86C1064.72 488.06 1056.43 488.17 1048.13 488.97C1042.34 489.52 1041.22 488.29 1041.22 483.64C1041.31 436.47 1041.31 389.33 1041.31 342.19C1041.31 331.18 1040.42 320.27 1036.2 309.92C1026.9 286.76 1004.07 277.09 980.77 286.42C963.04 293.45 950.56 306.53 938.74 320.82C932.14 328.79 929.53 337.2 929.76 347.76C930.33 392.86 929.87 437.85 930.1 482.95C930.1 489.75 927.72 489.63 917.94 488.51C911.48 487.83 904.77 487.83 898.28 488.63C890.45 489.63 888.87 488.97 888.99 483.64C889.1 436.47 889.1 389.33 889.1 342.19C889.1 331.18 888.18 320.27 883.97 309.92C874.9 287.31 853.99 277.9 830.26 285.84C811.84 291.98 799.01 305.04 786.85 319.36C780.02 327.42 777.41 335.94 777.53 346.73C778.1 392.17 777.64 437.62 777.87 483.06C777.87 489.09 776.18 490.09 765.93 488.4C760.17 487.37 754.14 487.37 748.23 488.4C738.1 490.09 736.76 488.86 736.76 483.06C736.87 410.13 736.87 337.32 736.87 264.38C736.87 252.68 736.87 252.68 748.81 252.68C756.41 252.68 763.9 252.91 771.5 252.56C775.72 252.33 776.52 253.8 776.41 257.67C776.06 268.46 776.18 279.36 776.18 291.64C783.67 281.97 790.49 273.57 799.13 266.77C824.12 247.11 851.83 242.21 881.82 251.99C899.66 257.79 911.94 270.27 920.12 286.99Z" id="ezxrXdXLH"></path><path d="M1774.81 250.61C1784.25 254.6 1793.77 258.13 1803.33 261.66C1806.4 262.78 1807.43 263.7 1806.17 267.22C1776.3 348.45 1746.64 429.79 1716.54 511.01C1708.36 533.04 1697.35 553.73 1680.19 570.54C1665.87 584.63 1648.37 592.35 1628.6 593.69C1612.36 594.84 1596.01 594.61 1580.78 587.24C1576.47 585.06 1576.21 583.45 1579 575.59C1580.63 570.89 1580.55 571.29 1581.58 568.91C1582.64 566.52 1582.76 564.2 1583.62 561.93C1584.45 559.64 1584.76 550.89 1589.76 552.93C1607.26 560.07 1624.96 562.14 1642.35 553.04C1655.43 546.1 1663.38 534.19 1669.95 521.57C1678.24 505.67 1680.53 497.61 1680.53 497.61C1680.53 497.61 1674.05 482.72 1666.79 466.91C1638.93 403.76 1610.87 340.7 1582.81 277.55C1581.35 274.14 1579.97 270.5 1578.16 267.22C1576.47 264.04 1577.36 262.78 1580.55 261.54C1585.14 259.65 1589.24 258.33 1594.72 255.72C1600.23 253.14 1603.1 251.67 1607.49 249.49C1611.79 247.34 1613.51 247.89 1615.55 252.45C1637.35 301.62 1659.39 350.6 1681.31 399.66C1685.27 408.38 1691.29 421.41 1699.41 438.71C1699.61 439.11 1701.22 442.32 1701.42 442.72C1712.72 410.85 1721.16 386.92 1726.75 370.94C1740.5 331.98 1754.24 292.99 1767.78 253.91C1769.24 249.72 1770.74 248.92 1774.81 250.61Z" id="bHQemAaUz"></path><path d="M1774.81 250.61C1784.25 254.6 1793.77 258.13 1803.33 261.66C1806.4 262.78 1807.43 263.7 1806.17 267.22C1776.3 348.45 1746.64 429.79 1716.54 511.01C1708.36 533.04 1697.35 553.73 1680.19 570.54C1665.87 584.63 1648.37 592.35 1628.6 593.69C1612.36 594.84 1596.01 594.61 1580.78 587.24C1576.47 585.06 1576.21 583.45 1579 575.59C1580.63 570.89 1580.55 571.29 1581.58 568.91C1582.64 566.52 1582.76 564.2 1583.62 561.93C1584.45 559.64 1584.76 550.89 1589.76 552.93C1607.26 560.07 1624.96 562.14 1642.35 553.04C1655.43 546.1 1663.38 534.19 1669.95 521.57C1678.24 505.67 1680.53 497.61 1680.53 497.61C1680.53 497.61 1674.05 482.72 1666.79 466.91C1638.93 403.76 1610.87 340.7 1582.81 277.55C1581.35 274.14 1579.97 270.5 1578.16 267.22C1576.47 264.04 1577.36 262.78 1580.55 261.54C1585.14 259.65 1589.24 258.33 1594.72 255.72C1600.23 253.14 1603.1 251.67 1607.49 249.49C1611.79 247.34 1613.51 247.89 1615.55 252.45C1637.35 301.62 1659.39 350.6 1681.31 399.66C1685.27 408.38 1691.29 421.41 1699.41 438.71C1699.61 439.11 1701.22 442.32 1701.42 442.72C1712.72 410.85 1721.16 386.92 1726.75 370.94C1740.5 331.98 1754.24 292.99 1767.78 253.91C1769.24 249.72 1770.74 248.92 1774.81 250.61Z" id="e38f5AI7jl"></path><path d="M1267.5 170.77C1273.53 170.31 1275.22 171.11 1275.22 176.56C1274.99 228.23 1275.22 279.93 1275.11 331.52C1275.11 354.01 1275.79 376.62 1274.53 399.12C1273.76 414.09 1271.03 428.75 1265.47 442.72C1253.99 471.47 1233.07 488.74 1202.29 492.93C1172.19 497.15 1144.48 490.9 1120.26 471.59C1116.53 468.63 1115.93 466.88 1121.07 460.69C1126.2 454.49 1121.07 460.69 1121.07 460.69C1124.28 458.53 1129.39 449.5 1131.6 445.94C1133.8 442.41 1136.07 433.97 1140.26 437.85C1150.85 447.83 1163.21 454.66 1177.64 456.47C1204.9 459.88 1222.98 446.14 1229 418.54C1231.38 407.41 1231.84 396.05 1231.96 384.68C1232.07 352.87 1232.07 321.05 1232.07 289.26C1232.07 251.65 1232.18 213.95 1231.96 176.33C1231.96 171.46 1233.3 170.31 1238.98 170.77C1248.54 171.57 1258.06 171.57 1267.5 170.77Z" id="a7wsF6uYw"></path><path d="M1267.5 170.77C1273.53 170.31 1275.22 171.11 1275.22 176.56C1274.99 228.23 1275.22 279.93 1275.11 331.52C1275.11 354.01 1275.79 376.62 1274.53 399.12C1273.76 414.09 1271.03 428.75 1265.47 442.72C1253.99 471.47 1233.07 488.74 1202.29 492.93C1172.19 497.15 1144.48 490.9 1120.26 471.59C1116.53 468.63 1115.93 466.88 1121.07 460.69C1126.2 454.49 1121.07 460.69 1121.07 460.69C1124.28 458.53 1129.39 449.5 1131.6 445.94C1133.8 442.41 1136.07 433.97 1140.26 437.85C1150.85 447.83 1163.21 454.66 1177.64 456.47C1204.9 459.88 1222.98 446.14 1229 418.54C1231.38 407.41 1231.84 396.05 1231.96 384.68C1232.07 352.87 1232.07 321.05 1232.07 289.26C1232.07 251.65 1232.18 213.95 1231.96 176.33C1231.96 171.46 1233.3 170.31 1238.98 170.77C1248.54 171.57 1258.06 171.57 1267.5 170.77Z" id="h40emcxBtP"></path><path d="M649.28 171C657.57 170.19 659.72 170.42 659.72 176.79C659.49 235.87 659.61 294.82 659.61 353.9C659.61 397.05 659.49 440.23 659.72 483.29C659.72 488.63 658.14 489.52 650.97 488.74C642.91 487.83 634.73 487.71 626.67 488.63C618.49 489.52 616.34 489.2 616.34 483.18C616.46 432.05 616.34 380.93 616.34 329.8C616.34 278.67 616.46 227.69 616.23 176.56C616.23 171 617.8 170.08 625.29 170.88C633.27 171.8 641.33 171.8 649.28 171Z" id="aul1UhNtb"></path><path d="M649.28 171C657.57 170.19 659.72 170.42 659.72 176.79C659.49 235.87 659.61 294.82 659.61 353.9C659.61 397.05 659.49 440.23 659.72 483.29C659.72 488.63 658.14 489.52 650.97 488.74C642.91 487.83 634.73 487.71 626.67 488.63C618.49 489.52 616.34 489.2 616.34 483.18C616.46 432.05 616.34 380.93 616.34 329.8C616.34 278.67 616.46 227.69 616.23 176.56C616.23 171 617.8 170.08 625.29 170.88C633.27 171.8 641.33 171.8 649.28 171Z" id="a1AGGCIXbU"></path><path d="M1460.71 247.6L1466.19 248.29L1471.67 249.21L1477.09 250.38L1482.45 251.82L1487.76 253.48L1492.98 255.4L1498.12 257.56L1503.14 259.99L1508.07 262.66L1512.86 265.59L1517.54 268.77L1522.05 272.22L1526.41 275.92L1530.6 279.91L1534.61 284.12L1538.43 288.63L1542.01 293.39L1545.4 298.44L1548.58 303.75L1551.48 309.31L1554.15 315.2L1556.56 321.31L1558.68 327.73L1560.52 334.42L1562.07 341.39L1562.5 343.66L1562.9 345.89L1563.27 348.16L1563.62 350.4L1563.91 352.67L1564.19 354.9L1564.65 359.38L1564.82 361.62L1564.97 363.85L1565.08 366.09L1565.17 368.3L1565.2 370.54L1565.23 372.75L1565.2 374.96L1565.14 377.2L1565.05 379.4L1564.94 381.59L1564.77 383.79L1564.57 386L1564.34 388.18L1564.08 390.39L1563.76 392.57L1563.42 394.75L1563.04 396.93L1562.64 399.09L1562.18 401.27L1561.7 403.42L1561.18 405.6L1560.61 407.75L1560 409.87L1558.68 414.18L1557.19 418.42L1556.39 420.55L1555.53 422.67L1554.64 424.76L1553.72 426.89L1552.74 428.98L1551.34 431.91L1549.85 434.78L1548.33 437.59L1546.75 440.31L1545.11 442.98L1543.42 445.57L1541.7 448.09L1539.92 450.56L1538.08 452.94L1536.22 455.26L1534.3 457.53L1532.32 459.71L1530.31 461.8L1528.24 463.87L1526.15 465.85L1523.97 467.74L1521.76 469.61L1519.52 471.39L1517.23 473.08L1514.87 474.74L1512.49 476.32L1510.05 477.81L1507.56 479.28L1505.03 480.65L1502.45 481.94L1499.84 483.21L1497.17 484.38L1494.47 485.5L1491.72 486.54L1488.91 487.51L1486.07 488.43L1483.2 489.29L1480.27 490.06L1477.29 490.78L1474.28 491.44L1471.23 492.02L1468.14 492.56L1464.98 493.02L1461.8 493.39L1458.58 493.74L1456.06 493.94L1453.56 494.11L1451.07 494.22L1448.6 494.31L1446.13 494.34L1443.66 494.31L1441.22 494.25L1438.79 494.14L1436.38 493.99L1433.97 493.79L1431.58 493.56L1429.2 493.28L1426.82 492.93L1424.5 492.53L1422.15 492.1L1419.82 491.64L1417.53 491.1L1415.23 490.52L1412.94 489.89L1410.7 489.23L1408.43 488.51L1406.19 487.74L1403.98 486.94L1401.78 486.05L1399.59 485.13L1397.44 484.15L1395.26 483.15L1393.14 482.09L1391.02 480.97L1388.92 479.79L1386.83 478.56L1384.76 477.3L1382.7 475.98L1380.66 474.6L1378.65 473.17L1376.64 471.67L1374.66 470.15L1372.71 468.55L1370.76 466.91L1368.84 465.22L1367.23 463.78L1365.68 462.29L1364.16 460.8L1362.7 459.31L1361.24 457.79L1359.83 456.24L1358.45 454.66L1357.13 453.08L1355.81 451.48L1354.55 449.84L1353.32 448.2L1352.11 446.54L1350.94 444.88L1349.82 443.18L1347.64 439.74L1346.6 437.99L1344.65 434.43L1343.71 432.63L1342.82 430.82L1341.96 428.98L1341.09 427.12L1340.29 425.25L1339.52 423.39L1338.77 421.49L1338.05 419.57L1337.39 417.65L1336.73 415.7L1336.1 413.72L1335.5 411.77L1334.41 407.75L1333.89 405.74L1333.43 403.71L1332.97 401.64L1332.54 399.57L1332.17 397.51L1331.8 395.41L1331.45 393.32L1331.37 392.72L1331.28 392.09L1331.11 390.88L1331.05 390.28L1330.97 389.68L1330.91 389.04L1330.82 388.44L1330.77 387.81L1330.71 387.21L1330.54 385.31L1330.51 384.68L1330.45 384.05L1330.39 383.39L1330.36 382.76L1330.31 382.1L1330.28 381.41L1330.25 380.75L1330.19 380.09L1330.13 378.72L1330.11 378L1330.05 377.31L1330.02 376.59L1329.99 375.85L1329.96 375.13L1329.91 373.64L1329.88 372.86L1329.82 372.09L1329.79 371.31L1329.73 369.71L1329.68 368.88L1329.62 367.21L1329.56 366.35L1329.53 365.49L1329.65 362.51L1329.82 359.58L1330.02 356.62L1330.31 353.7L1330.62 350.8L1331 347.9L1331.43 345.03L1331.88 342.16L1332.43 339.32L1333.03 336.48L1333.69 333.7L1334.38 330.92L1335.16 328.13L1335.99 325.41L1336.88 322.68L1337.85 319.99L1338.89 317.32L1339.95 314.68L1341.12 312.07L1342.33 309.49L1343.62 306.93L1345 304.41L1346.43 301.91L1347.92 299.44L1349.5 297.01L1351.16 294.62L1352.89 292.27L1354.67 289.92L1356.56 287.65L1358.51 285.39L1360.55 283.18L1362.67 281L1364.85 278.87L1367.15 276.78L1369.5 274.74L1371.94 272.73L1374.46 270.78L1377.07 268.86L1379.8 266.99L1382.58 265.16L1387.14 262.43L1391.82 259.91L1396.64 257.61L1401.6 255.52L1406.65 253.65L1411.82 252.02L1417.07 250.61L1422.37 249.41L1427.74 248.46L1433.19 247.74L1438.64 247.23L1444.15 246.97L1449.66 246.94L1455.2 247.14L1460.71 247.6ZM1440.82 283.81L1437.49 284.09L1434.2 284.52L1430.92 285.1L1427.71 285.79L1424.56 286.65L1421.43 287.62L1418.36 288.71L1415.37 289.98L1412.45 291.32L1409.61 292.82L1406.85 294.42L1404.19 296.14L1401.63 298.01L1399.16 299.96L1396.81 302.03L1394.57 304.24L1392.48 306.53L1391.19 308.02L1389.93 309.57L1388.75 311.12L1387.6 312.67L1386.51 314.25L1385.45 315.86L1384.45 317.46L1383.47 319.1L1381.69 322.37L1380.86 324.06L1380.08 325.72L1379.34 327.42L1378.62 329.14L1377.93 330.86L1377.3 332.58L1376.73 334.33L1376.15 336.11L1375.64 337.86L1375.15 339.64L1374.69 341.45L1374.29 343.23L1373.89 345.03L1373.54 346.87L1372.91 350.54L1372.65 352.38L1372.42 354.24L1372.02 357.97L1371.88 359.84L1371.74 361.73L1371.62 363.62L1371.54 365.52L1371.48 367.44L1371.45 369.33L1371.48 370.08L1371.54 371.51L1371.59 372.26L1371.65 373.7L1371.76 375.13L1371.79 375.85L1372.02 378.72L1372.11 379.43L1372.17 380.15L1372.25 380.87L1372.31 381.59L1372.4 382.3L1372.48 382.99L1372.65 384.43L1372.77 385.11L1372.85 385.83L1372.97 386.52L1373.08 387.24L1373.2 387.93L1373.31 388.64L1373.46 389.33L1373.57 390.05L1374 392.11L1374.15 392.83L1374.29 393.52L1374.63 394.9L1375.41 397.8L1376.3 400.66L1377.27 403.53L1378.31 406.37L1379.45 409.16L1380.69 411.91L1382.04 414.64L1383.44 417.3L1384.93 419.94L1386.51 422.53L1388.18 425.02L1389.93 427.49L1391.73 429.9L1393.66 432.22L1395.64 434.46L1397.7 436.64L1399.85 438.74L1402.06 440.75L1404.36 442.67L1406.74 444.5L1409.18 446.23L1411.7 447.86L1414.28 449.38L1416.95 450.82L1419.68 452.11L1422.46 453.28L1425.33 454.34L1428.26 455.29L1431.27 456.09L1434.34 456.75L1437.47 457.27L1440.65 457.67L1443.92 457.93L1447.22 458.02L1450.61 457.93L1454.05 457.73L1455.68 457.56L1457.35 457.36L1458.98 457.16L1462.2 456.64L1463.8 456.35L1465.38 456.01L1466.93 455.66L1468.51 455.29L1471.55 454.43L1473.07 453.97L1474.56 453.46L1476.03 452.94L1477.49 452.36L1478.92 451.76L1480.36 451.13L1481.76 450.47L1483.17 449.78L1484.55 449.07L1487.24 447.52L1488.56 446.68L1489.88 445.79L1491.17 444.91L1492.44 443.96L1493.7 442.98L1494.93 441.98L1496.17 440.95L1497.34 439.86L1498.55 438.71L1499.7 437.56L1500.84 436.36L1501.96 435.12L1503.05 433.83L1504.14 432.51L1506.32 429.61L1508.39 426.63L1510.28 423.56L1512.09 420.37L1513.73 417.1L1515.25 413.78L1516.65 410.36L1517.89 406.89L1519 403.33L1520.01 399.75L1520.87 396.1L1521.62 392.43L1522.19 388.73L1522.68 384.97L1523.02 381.21L1523.22 377.45L1523.31 373.67L1523.25 369.88L1523.08 366.09L1522.76 362.31L1522.33 358.55L1521.76 354.82L1521.07 351.09L1520.27 347.41L1519.32 343.8L1518.23 340.21L1517.05 336.66L1515.73 333.18L1514.27 329.8L1512.69 326.44L1511 323.2L1509.16 320.04L1507.21 316.95L1505.15 313.99L1502.94 311.09L1500.61 308.34L1498 305.5L1495.28 302.83L1492.47 300.36L1489.57 298.07L1486.61 295.94L1483.57 294.02L1480.47 292.24L1477.35 290.66L1474.13 289.23L1470.89 287.97L1467.62 286.88L1464.29 285.96L1460.96 285.18L1457.61 284.58L1454.25 284.12L1450.86 283.81L1447.51 283.66L1444.15 283.66L1440.82 283.81Z" id="b2MSrEzuL8"></path><path d="M1460.71 247.6L1466.19 248.29L1471.67 249.21L1477.09 250.38L1482.45 251.82L1487.76 253.48L1492.98 255.4L1498.12 257.56L1503.14 259.99L1508.07 262.66L1512.86 265.59L1517.54 268.77L1522.05 272.22L1526.41 275.92L1530.6 279.91L1534.61 284.12L1538.43 288.63L1542.01 293.39L1545.4 298.44L1548.58 303.75L1551.48 309.31L1554.15 315.2L1556.56 321.31L1558.68 327.73L1560.52 334.42L1562.07 341.39L1562.5 343.66L1562.9 345.89L1563.27 348.16L1563.62 350.4L1563.91 352.67L1564.19 354.9L1564.65 359.38L1564.82 361.62L1564.97 363.85L1565.08 366.09L1565.17 368.3L1565.2 370.54L1565.23 372.75L1565.2 374.96L1565.14 377.2L1565.05 379.4L1564.94 381.59L1564.77 383.79L1564.57 386L1564.34 388.18L1564.08 390.39L1563.76 392.57L1563.42 394.75L1563.04 396.93L1562.64 399.09L1562.18 401.27L1561.7 403.42L1561.18 405.6L1560.61 407.75L1560 409.87L1558.68 414.18L1557.19 418.42L1556.39 420.55L1555.53 422.67L1554.64 424.76L1553.72 426.89L1552.74 428.98L1551.34 431.91L1549.85 434.78L1548.33 437.59L1546.75 440.31L1545.11 442.98L1543.42 445.57L1541.7 448.09L1539.92 450.56L1538.08 452.94L1536.22 455.26L1534.3 457.53L1532.32 459.71L1530.31 461.8L1528.24 463.87L1526.15 465.85L1523.97 467.74L1521.76 469.61L1519.52 471.39L1517.23 473.08L1514.87 474.74L1512.49 476.32L1510.05 477.81L1507.56 479.28L1505.03 480.65L1502.45 481.94L1499.84 483.21L1497.17 484.38L1494.47 485.5L1491.72 486.54L1488.91 487.51L1486.07 488.43L1483.2 489.29L1480.27 490.06L1477.29 490.78L1474.28 491.44L1471.23 492.02L1468.14 492.56L1464.98 493.02L1461.8 493.39L1458.58 493.74L1456.06 493.94L1453.56 494.11L1451.07 494.22L1448.6 494.31L1446.13 494.34L1443.66 494.31L1441.22 494.25L1438.79 494.14L1436.38 493.99L1433.97 493.79L1431.58 493.56L1429.2 493.28L1426.82 492.93L1424.5 492.53L1422.15 492.1L1419.82 491.64L1417.53 491.1L1415.23 490.52L1412.94 489.89L1410.7 489.23L1408.43 488.51L1406.19 487.74L1403.98 486.94L1401.78 486.05L1399.59 485.13L1397.44 484.15L1395.26 483.15L1393.14 482.09L1391.02 480.97L1388.92 479.79L1386.83 478.56L1384.76 477.3L1382.7 475.98L1380.66 474.6L1378.65 473.17L1376.64 471.67L1374.66 470.15L1372.71 468.55L1370.76 466.91L1368.84 465.22L1367.23 463.78L1365.68 462.29L1364.16 460.8L1362.7 459.31L1361.24 457.79L1359.83 456.24L1358.45 454.66L1357.13 453.08L1355.81 451.48L1354.55 449.84L1353.32 448.2L1352.11 446.54L1350.94 444.88L1349.82 443.18L1347.64 439.74L1346.6 437.99L1344.65 434.43L1343.71 432.63L1342.82 430.82L1341.96 428.98L1341.09 427.12L1340.29 425.25L1339.52 423.39L1338.77 421.49L1338.05 419.57L1337.39 417.65L1336.73 415.7L1336.1 413.72L1335.5 411.77L1334.41 407.75L1333.89 405.74L1333.43 403.71L1332.97 401.64L1332.54 399.57L1332.17 397.51L1331.8 395.41L1331.45 393.32L1331.37 392.72L1331.28 392.09L1331.11 390.88L1331.05 390.28L1330.97 389.68L1330.91 389.04L1330.82 388.44L1330.77 387.81L1330.71 387.21L1330.54 385.31L1330.51 384.68L1330.45 384.05L1330.39 383.39L1330.36 382.76L1330.31 382.1L1330.28 381.41L1330.25 380.75L1330.19 380.09L1330.13 378.72L1330.11 378L1330.05 377.31L1330.02 376.59L1329.99 375.85L1329.96 375.13L1329.91 373.64L1329.88 372.86L1329.82 372.09L1329.79 371.31L1329.73 369.71L1329.68 368.88L1329.62 367.21L1329.56 366.35L1329.53 365.49L1329.65 362.51L1329.82 359.58L1330.02 356.62L1330.31 353.7L1330.62 350.8L1331 347.9L1331.43 345.03L1331.88 342.16L1332.43 339.32L1333.03 336.48L1333.69 333.7L1334.38 330.92L1335.16 328.13L1335.99 325.41L1336.88 322.68L1337.85 319.99L1338.89 317.32L1339.95 314.68L1341.12 312.07L1342.33 309.49L1343.62 306.93L1345 304.41L1346.43 301.91L1347.92 299.44L1349.5 297.01L1351.16 294.62L1352.89 292.27L1354.67 289.92L1356.56 287.65L1358.51 285.39L1360.55 283.18L1362.67 281L1364.85 278.87L1367.15 276.78L1369.5 274.74L1371.94 272.73L1374.46 270.78L1377.07 268.86L1379.8 266.99L1382.58 265.16L1387.14 262.43L1391.82 259.91L1396.64 257.61L1401.6 255.52L1406.65 253.65L1411.82 252.02L1417.07 250.61L1422.37 249.41L1427.74 248.46L1433.19 247.74L1438.64 247.23L1444.15 246.97L1449.66 246.94L1455.2 247.14L1460.71 247.6ZM1440.82 283.81L1437.49 284.09L1434.2 284.52L1430.92 285.1L1427.71 285.79L1424.56 286.65L1421.43 287.62L1418.36 288.71L1415.37 289.98L1412.45 291.32L1409.61 292.82L1406.85 294.42L1404.19 296.14L1401.63 298.01L1399.16 299.96L1396.81 302.03L1394.57 304.24L1392.48 306.53L1391.19 308.02L1389.93 309.57L1388.75 311.12L1387.6 312.67L1386.51 314.25L1385.45 315.86L1384.45 317.46L1383.47 319.1L1381.69 322.37L1380.86 324.06L1380.08 325.72L1379.34 327.42L1378.62 329.14L1377.93 330.86L1377.3 332.58L1376.73 334.33L1376.15 336.11L1375.64 337.86L1375.15 339.64L1374.69 341.45L1374.29 343.23L1373.89 345.03L1373.54 346.87L1372.91 350.54L1372.65 352.38L1372.42 354.24L1372.02 357.97L1371.88 359.84L1371.74 361.73L1371.62 363.62L1371.54 365.52L1371.48 367.44L1371.45 369.33L1371.48 370.08L1371.54 371.51L1371.59 372.26L1371.65 373.7L1371.76 375.13L1371.79 375.85L1372.02 378.72L1372.11 379.43L1372.17 380.15L1372.25 380.87L1372.31 381.59L1372.4 382.3L1372.48 382.99L1372.65 384.43L1372.77 385.11L1372.85 385.83L1372.97 386.52L1373.08 387.24L1373.2 387.93L1373.31 388.64L1373.46 389.33L1373.57 390.05L1374 392.11L1374.15 392.83L1374.29 393.52L1374.63 394.9L1375.41 397.8L1376.3 400.66L1377.27 403.53L1378.31 406.37L1379.45 409.16L1380.69 411.91L1382.04 414.64L1383.44 417.3L1384.93 419.94L1386.51 422.53L1388.18 425.02L1389.93 427.49L1391.73 429.9L1393.66 432.22L1395.64 434.46L1397.7 436.64L1399.85 438.74L1402.06 440.75L1404.36 442.67L1406.74 444.5L1409.18 446.23L1411.7 447.86L1414.28 449.38L1416.95 450.82L1419.68 452.11L1422.46 453.28L1425.33 454.34L1428.26 455.29L1431.27 456.09L1434.34 456.75L1437.47 457.27L1440.65 457.67L1443.92 457.93L1447.22 458.02L1450.61 457.93L1454.05 457.73L1455.68 457.56L1457.35 457.36L1458.98 457.16L1462.2 456.64L1463.8 456.35L1465.38 456.01L1466.93 455.66L1468.51 455.29L1471.55 454.43L1473.07 453.97L1474.56 453.46L1476.03 452.94L1477.49 452.36L1478.92 451.76L1480.36 451.13L1481.76 450.47L1483.17 449.78L1484.55 449.07L1487.24 447.52L1488.56 446.68L1489.88 445.79L1491.17 444.91L1492.44 443.96L1493.7 442.98L1494.93 441.98L1496.17 440.95L1497.34 439.86L1498.55 438.71L1499.7 437.56L1500.84 436.36L1501.96 435.12L1503.05 433.83L1504.14 432.51L1506.32 429.61L1508.39 426.63L1510.28 423.56L1512.09 420.37L1513.73 417.1L1515.25 413.78L1516.65 410.36L1517.89 406.89L1519 403.33L1520.01 399.75L1520.87 396.1L1521.62 392.43L1522.19 388.73L1522.68 384.97L1523.02 381.21L1523.22 377.45L1523.31 373.67L1523.25 369.88L1523.08 366.09L1522.76 362.31L1522.33 358.55L1521.76 354.82L1521.07 351.09L1520.27 347.41L1519.32 343.8L1518.23 340.21L1517.05 336.66L1515.73 333.18L1514.27 329.8L1512.69 326.44L1511 323.2L1509.16 320.04L1507.21 316.95L1505.15 313.99L1502.94 311.09L1500.61 308.34L1498 305.5L1495.28 302.83L1492.47 300.36L1489.57 298.07L1486.61 295.94L1483.57 294.02L1480.47 292.24L1477.35 290.66L1474.13 289.23L1470.89 287.97L1467.62 286.88L1464.29 285.96L1460.96 285.18L1457.61 284.58L1454.25 284.12L1450.86 283.81L1447.51 283.66L1444.15 283.66L1440.82 283.81Z" id="b29MYL7C16"></path><path d="M483.45 312.76C481.24 325.24 469.59 328.91 457.22 326.59C452.92 325.67 450.05 333.04 448.99 336.43C440.01 365.83 429.22 387.38 410.08 411.57C382.23 446.74 345.79 467.57 301.12 471.33C223.54 477.99 166.9 443.21 126.31 379.18C117.33 364.97 110.93 349.62 107.17 333.21C106.62 331.26 106.77 329.94 103.64 330.49C90.5 332.29 83.18 330.32 78.88 319.38C74.61 308.57 79.25 303.17 88.75 295.77C100.86 286.39 113.74 281.54 128.46 279.85C135.75 279.05 146.39 277.27 153.94 279.22C164.46 281.94 169.26 285.47 171.35 295.77C173.56 306.44 167.31 311.21 158.44 317.72C156.12 319.41 154.68 320.33 156.12 323.83C174.45 365.37 201.93 397.8 246.46 412.23C300.6 429.81 354.51 407.29 380.53 356.91C388.74 341.02 395.83 325.72 401.16 308.8C402.34 305.15 400.59 302.23 396.54 301.05C386.53 298.33 378.81 291.5 378.53 282.66C378.24 273.82 381.68 268.23 391.58 263.55C400.3 259.76 408.79 260.17 422.25 261.8C435.71 263.44 448.65 267.11 465.83 281.66C483.02 296.2 485.4 301.8 483.45 312.76Z" id="g1PCel6oxc"></path><path d="M483.45 312.76C481.24 325.24 469.59 328.91 457.22 326.59C452.92 325.67 450.05 333.04 448.99 336.43C440.01 365.83 429.22 387.38 410.08 411.57C382.23 446.74 345.79 467.57 301.12 471.33C223.54 477.99 166.9 443.21 126.31 379.18C117.33 364.97 110.93 349.62 107.17 333.21C106.62 331.26 106.77 329.94 103.64 330.49C90.5 332.29 83.18 330.32 78.88 319.38C74.61 308.57 79.25 303.17 88.75 295.77C100.86 286.39 113.74 281.54 128.46 279.85C135.75 279.05 146.39 277.27 153.94 279.22C164.46 281.94 169.26 285.47 171.35 295.77C173.56 306.44 167.31 311.21 158.44 317.72C156.12 319.41 154.68 320.33 156.12 323.83C174.45 365.37 201.93 397.8 246.46 412.23C300.6 429.81 354.51 407.29 380.53 356.91C388.74 341.02 395.83 325.72 401.16 308.8C402.34 305.15 400.59 302.23 396.54 301.05C386.53 298.33 378.81 291.5 378.53 282.66C378.24 273.82 381.68 268.23 391.58 263.55C400.3 259.76 408.79 260.17 422.25 261.8C435.71 263.44 448.65 267.11 465.83 281.66C483.02 296.2 485.4 301.8 483.45 312.76Z" id="b4VyMdBcw1"></path><path d="M244.88 192.89C246.32 215.78 229.54 233.89 208.71 234.55C185.52 235.18 166.53 215.12 169.11 195.61C166.53 177.51 183.57 157.86 206.75 156.82C225.89 155.91 243.71 173.61 244.88 192.89Z" id="dLGlon8QC"></path><path d="M244.88 192.89C246.32 215.78 229.54 233.89 208.71 234.55C185.52 235.18 166.53 215.12 169.11 195.61C166.53 177.51 183.57 157.86 206.75 156.82C225.89 155.91 243.71 173.61 244.88 192.89Z" id="b2awhNsWfT"></path><path d="M377.55 186.49C377.66 207.58 359.7 225.54 338.62 225.42C318.3 225.16 301.43 208.49 300.75 189.36C299.74 161.53 320.08 149.02 339.13 148.62C359.85 148.16 377.41 165.92 377.55 186.49Z" id="b3FOT2u7HJ"></path><path d="M377.55 186.49C377.66 207.58 359.7 225.54 338.62 225.42C318.3 225.16 301.43 208.49 300.75 189.36C299.74 161.53 320.08 149.02 339.13 148.62C359.85 148.16 377.41 165.92 377.55 186.49Z" id="c1c76e6q1H"></path><path d="M242.55 9.02C165.86 20.51 112.05 76.84 107.14 117.94C102.22 159.03 93.75 205.49 85.97 218.2C78.01 231.05 96.68 238.01 109.88 223.46C123.07 209.07 139.08 182.42 143.38 152.21C147.68 122.01 333.25 93.48 333.25 93.48C338.27 93.27 363.35 92.24 408.49 90.39C348.99 28.49 293.68 1.36 242.55 9.02Z" id="ivi5d5xXl"></path><path d="M155.63 92.7C186.03 87.82 208.01 64.03 226.33 63.98C244.64 63.93 282.29 52.17 291.85 53.39C301.4 54.6 364.76 79.72 377.98 79.65C391.2 79.59 414.86 83.88 415.17 91.4C415.49 98.92 417.66 139.32 406.3 138.51C394.94 137.7 351.08 119.53 322.94 122.95C294.8 126.37 275.47 130.59 262.71 133.26C250.11 135.96 216.16 121.28 198.85 125.92C181.69 130.58 140.81 176.48 131.83 173.26C123.14 170.24 121.23 140.23 122.17 131.59C124.46 109.91 125.23 97.59 155.63 92.7Z" id="a2xSQ2nczI"></path><path d="M75.6 186.95C89.9 194.69 90.64 197.07 97.33 205.91C104.03 214.74 104.48 234.12 97.33 249.14C90.19 264.17 69.28 277.45 48.43 273.82C27.58 270.18 10.81 240.71 12.42 227.22C14.03 213.73 5.44 213.95 33.08 189.47C41.76 181.89 61.3 179.2 75.6 186.95Z" id="h828WtkFJ"></path><path d="M240.75 288.99C232.6 293.9 209.33 305.41 201.31 300.37C197.43 296.87 205.84 310.45 201.31 310.71C196.79 310.97 186.31 301.27 183.08 297.39C179.85 293.51 173 307.99 181.79 320.28C190.58 332.56 202.6 351.57 239.58 340.32C276.56 329.07 281.99 294.55 282.12 293C278.37 290.93 273.59 287.95 273.59 287.95C265.44 287.31 248.89 284.2 240.75 288.99Z" id="e16SDrzwBd"></path><path d="M313.97 286.61C322.16 291.32 345.91 302.26 353.75 297.02C357.52 293.44 349.47 307.18 354.03 307.38C358.48 307.51 368.78 297.57 371.91 293.52C375.17 289.53 382.26 303.88 373.83 316.4C365.4 328.92 353.84 348.26 316.6 338.01C279.36 327.76 273.08 293.41 272.76 291.78C276.45 289.48 281.13 286.38 281.13 286.38C289.18 285.48 305.79 281.9 313.97 286.61Z" id="f2bybuLc4I"></path></defs><g><g><g><use xlink:href="#bvGf4RDZ9" opacity="1" fill="#ffffff" fill-opacity="1"></use><g><use xlink:href="#bvGf4RDZ9" opacity="1" fill-opacity="0" stroke="#000000" stroke-width="1" stroke-opacity="0"></use></g></g><g><use xlink:href="#b19AE4nBfX" opacity="1" fill="#000000" fill-opacity="0"></use><g><use xlink:href="#b19AE4nBfX" opacity="1" fill-opacity="0" stroke="#000000" stroke-width="3" stroke-opacity="0"></use></g></g><g><use xlink:href="#a7gQGszshN" opacity="1" fill="#448aff" fill-opacity="1"></use><g><use xlink:href="#a7gQGszshN" opacity="1" fill-opacity="0" stroke="#000000" stroke-width="1" stroke-opacity="0"></use></g></g><g><use xlink:href="#a1SgvHLQDO" opacity="1" fill="#000000" fill-opacity="0"></use><g><use xlink:href="#a1SgvHLQDO" opacity="1" fill-opacity="0" stroke="#000000" stroke-width="3" stroke-opacity="0"></use></g></g><g><use xlink:href="#b3iX4H5PJ" opacity="1" fill="#000000" fill-opacity="1"></use><g><use xlink:href="#b3iX4H5PJ" opacity="1" fill-opacity="0" stroke="#000000" stroke-width="1" stroke-opacity="0"></use></g></g><g><use xlink:href="#ezxrXdXLH" opacity="1" fill="#000000" fill-opacity="0"></use><g><use xlink:href="#ezxrXdXLH" opacity="1" fill-opacity="0" stroke="#000000" stroke-width="1" stroke-opacity="0"></use></g></g><g><use xlink:href="#bHQemAaUz" opacity="1" fill="#000000" fill-opacity="1"></use><g><use xlink:href="#bHQemAaUz" opacity="1" fill-opacity="0" stroke="#000000" stroke-width="1" stroke-opacity="0"></use></g></g><g><use xlink:href="#e38f5AI7jl" opacity="1" fill="#000000" fill-opacity="0"></use><g><use xlink:href="#e38f5AI7jl" opacity="1" fill-opacity="0" stroke="#000000" stroke-width="1" stroke-opacity="0"></use></g></g><g><use xlink:href="#a7wsF6uYw" opacity="1" fill="#000000" fill-opacity="1"></use><g><use xlink:href="#a7wsF6uYw" opacity="1" fill-opacity="0" stroke="#000000" stroke-width="1" stroke-opacity="0"></use></g></g><g><use xlink:href="#h40emcxBtP" opacity="1" fill="#000000" fill-opacity="0"></use><g><use xlink:href="#h40emcxBtP" opacity="1" fill-opacity="0" stroke="#000000" stroke-width="1" stroke-opacity="0"></use></g></g><g><use xlink:href="#aul1UhNtb" opacity="1" fill="#000000" fill-opacity="1"></use><g><use xlink:href="#aul1UhNtb" opacity="1" fill-opacity="0" stroke="#000000" stroke-width="1" stroke-opacity="0"></use></g></g><g><use xlink:href="#a1AGGCIXbU" opacity="1" fill="#000000" fill-opacity="0"></use><g><use xlink:href="#a1AGGCIXbU" opacity="1" fill-opacity="0" stroke="#000000" stroke-width="1" stroke-opacity="0"></use></g></g><g><use xlink:href="#b2MSrEzuL8" opacity="1" fill="#000000" fill-opacity="1"></use><g><use xlink:href="#b2MSrEzuL8" opacity="1" fill-opacity="0" stroke="#000000" stroke-width="1" stroke-opacity="0"></use></g></g><g><use xlink:href="#b29MYL7C16" opacity="1" fill="#000000" fill-opacity="0"></use><g><use xlink:href="#b29MYL7C16" opacity="1" fill-opacity="0" stroke="#000000" stroke-width="1" stroke-opacity="0"></use></g></g><g><use xlink:href="#g1PCel6oxc" opacity="1" fill="#fefefe" fill-opacity="1"></use><g><use xlink:href="#g1PCel6oxc" opacity="1" fill-opacity="0" stroke="#000000" stroke-width="1" stroke-opacity="0"></use></g></g><g><use xlink:href="#b4VyMdBcw1" opacity="1" fill="#000000" fill-opacity="0"></use><g><use xlink:href="#b4VyMdBcw1" opacity="1" fill-opacity="0" stroke="#000000" stroke-width="1" stroke-opacity="0"></use></g></g><g><use xlink:href="#dLGlon8QC" opacity="1" fill="#fefefe" fill-opacity="1"></use><g><use xlink:href="#dLGlon8QC" opacity="1" fill-opacity="0" stroke="#000000" stroke-width="1" stroke-opacity="0"></use></g></g><g><use xlink:href="#b2awhNsWfT" opacity="1" fill="#000000" fill-opacity="0"></use><g><use xlink:href="#b2awhNsWfT" opacity="1" fill-opacity="0" stroke="#000000" stroke-width="1" stroke-opacity="0"></use></g></g><g><use xlink:href="#b3FOT2u7HJ" opacity="1" fill="#fefefe" fill-opacity="1"></use><g><use xlink:href="#b3FOT2u7HJ" opacity="1" fill-opacity="0" stroke="#000000" stroke-width="1" stroke-opacity="0"></use></g></g><g><use xlink:href="#c1c76e6q1H" opacity="1" fill="#000000" fill-opacity="0"></use><g><use xlink:href="#c1c76e6q1H" opacity="1" fill-opacity="0" stroke="#000000" stroke-width="1" stroke-opacity="0"></use></g></g><g><use xlink:href="#ivi5d5xXl" opacity="1" fill="#d81324" fill-opacity="1"></use><g><use xlink:href="#ivi5d5xXl" opacity="1" fill-opacity="0" stroke="#000000" stroke-width="1" stroke-opacity="0"></use></g></g><g><use xlink:href="#a2xSQ2nczI" opacity="1" fill="#fffafa" fill-opacity="1"></use><g><use xlink:href="#a2xSQ2nczI" opacity="1" fill-opacity="0" stroke="#000000" stroke-width="1" stroke-opacity="0"></use></g></g><g><use xlink:href="#h828WtkFJ" opacity="1" fill="#fffafa" fill-opacity="1"></use><g><use xlink:href="#h828WtkFJ" opacity="1" fill-opacity="0" stroke="#010000" stroke-width="5" stroke-opacity="0"></use></g></g><g><use xlink:href="#e16SDrzwBd" opacity="1" fill="#ffffff" fill-opacity="1"></use><g><use xlink:href="#e16SDrzwBd" opacity="1" fill-opacity="0" stroke="#000000" stroke-width="1" stroke-opacity="0"></use></g></g><g><use xlink:href="#f2bybuLc4I" opacity="1" fill="#ffffff" fill-opacity="1"></use><g><use xlink:href="#f2bybuLc4I" opacity="1" fill-opacity="0" stroke="#000000" stroke-width="1" stroke-opacity="0"></use></g></g></g></g></svg>