<?xml version="1.0" encoding="UTF-8" standalone="no"?>
<!DOCTYPE svg PUBLIC "-//W3C//DTD SVG 1.1//EN" "http://www.w3.org/Graphics/SVG/1.1/DTD/svg11.dtd">
<svg version="1.1" xmlns="http://www.w3.org/2000/svg" xmlns:xlink="http://www.w3.org/1999/xlink" preserveAspectRatio="xMidYMid meet" viewBox="0 0 640 220" width="640" height="220"><defs><path d="M32.35 15.34C42.64 15.34 153.82 15.24 162.15 15.34C170.49 15.44 183.58 24.57 183.5 36.87C183.41 49.18 183.5 155.43 183.5 167.65C183.5 179.86 174.25 189.3 160.75 189.26C118.06 189.17 44.53 189.38 32.71 189.26C20.9 189.13 9.55 178.77 9.68 167.65C9.81 156.53 9.72 124.02 9.72 102.15C9.72 80.55 9.22 49.16 9.72 37.29C10.23 25.42 22.06 15.34 32.35 15.34Z" id="cfTw1uN67"></path><path d="M34.44 19.15C76.14 19.15 117.87 19.15 159.57 19.15C170.3 19.15 178.14 25.85 179.88 36.42C180.08 37.53 180.04 38.63 180.04 39.78C180.04 81.57 180.04 123.35 180.04 165.13C180.04 177.81 171.17 185.89 158.22 185.85C117.28 185.77 76.38 185.73 35.43 185.85C22.49 185.89 13.38 177.89 13.34 165.13C13.38 144.23 13.38 123.31 13.38 102.36C13.38 81.65 13.38 60.9 13.38 40.18C13.38 27.47 21.73 19.15 34.44 19.15Z" id="bDw7Io9J"></path><path d="M306.14 83.66C312.36 85.68 316.64 90.03 319.49 95.86C320 96.92 320.44 97.99 320.95 99.18C322.53 97.2 324 95.3 325.54 93.44C334.14 83.22 347.8 79.3 359.6 83.74C368.58 87.1 373.02 94.07 374.96 103.06C375.71 106.63 375.95 110.27 375.95 113.87C375.99 130.62 375.91 147.41 376.03 164.16C376.03 166.3 375.32 166.45 372.78 166.22C369.89 165.94 367 165.98 364.11 166.26C362.09 166.45 361.7 166.02 361.7 164.4C361.73 147.96 361.73 131.53 361.73 115.1C361.73 111.26 361.42 107.46 359.95 103.85C356.71 95.78 348.75 92.41 340.63 95.66C334.45 98.11 330.1 102.67 325.98 107.65C323.68 110.43 322.77 113.36 322.85 117.04C323.05 132.76 322.89 148.44 322.97 164.16C322.97 166.53 322.14 166.49 318.73 166.1C316.48 165.86 314.14 165.86 311.88 166.14C309.15 166.49 308.6 166.26 308.64 164.4C308.68 147.96 308.68 131.53 308.68 115.1C308.68 111.26 308.36 107.46 306.89 103.85C303.73 95.97 296.44 92.69 288.17 95.46C281.75 97.6 277.28 102.15 273.04 107.14C270.66 109.95 269.75 112.92 269.79 116.68C269.99 132.52 269.83 148.36 269.91 164.2C269.91 166.3 269.32 166.65 265.75 166.06C263.74 165.7 261.64 165.7 259.58 166.06C256.05 166.65 255.58 166.22 255.58 164.2C255.62 138.78 255.62 113.4 255.62 87.98C255.62 83.9 255.62 83.9 259.78 83.9C262.43 83.9 265.04 83.98 267.69 83.86C269.16 83.78 269.44 84.29 269.4 85.64C269.28 89.4 269.32 93.2 269.32 97.48C271.93 94.11 274.31 91.18 277.32 88.81C286.03 81.96 295.69 80.25 306.14 83.66Z" id="a17raxbtSB"></path><path d="M614.94 84.33C615.45 82.87 615.97 82.59 617.39 83.18C620.68 84.57 624 85.8 627.33 87.03C628.4 87.42 628.76 87.74 628.32 88.97C617.91 117.28 607.57 145.63 597.08 173.94C594.23 181.62 590.39 188.83 584.41 194.69C579.42 199.6 573.32 202.29 566.43 202.76C560.77 203.16 555.07 203.08 549.76 200.51C548.26 199.75 548.17 199.19 549.13 196.45C549.71 194.8 549.68 194.94 550.04 194.12C550.4 193.29 550.45 192.48 550.75 191.69C551.04 190.89 551.15 187.84 552.89 188.55C558.99 191.04 565.16 191.76 571.22 188.59C575.78 186.17 578.55 182.02 580.84 177.62C583.73 172.08 584.53 169.27 584.53 169.27C584.53 169.27 582.27 164.08 579.74 158.57C570.03 136.56 560.25 114.58 550.47 92.57C549.96 91.38 549.48 90.11 548.85 88.97C548.26 87.86 548.57 87.42 549.68 86.99C551.28 86.33 552.71 85.86 554.62 84.95C556.54 84.05 557.54 83.55 559.07 82.79C560.57 82.04 561.17 82.23 561.88 83.82C569.48 100.96 577.16 118.03 584.8 135.13C586.18 138.17 588.28 142.71 591.11 148.74C591.18 148.88 591.74 150 591.81 150.14C595.75 139.03 598.69 130.69 600.64 125.12C605.43 111.54 610.22 97.95 614.94 84.33Z" id="abniPz5xN"></path><path d="M430.63 55.35C433.96 55.63 437.28 55.63 440.57 55.35C442.67 55.19 443.26 55.47 443.26 57.37C443.18 75.38 443.26 93.4 443.22 111.38C443.22 119.22 443.46 127.1 443.02 134.94C442.75 140.16 441.8 145.27 439.86 150.14C435.86 160.16 428.57 166.18 417.84 167.64C407.35 169.11 397.69 166.93 389.25 160.2C387.95 159.17 387.74 158.56 389.53 156.4C391.32 154.24 389.53 156.4 389.53 156.4C390.64 155.65 392.43 152.5 393.2 151.26C393.97 150.03 394.76 147.09 396.22 148.44C399.91 151.92 404.22 154.3 409.25 154.93C418.75 156.12 425.05 151.33 427.15 141.71C427.98 137.83 428.14 133.87 428.18 129.91C428.22 118.82 428.22 107.73 428.22 96.65C428.22 83.54 428.26 70.4 428.18 57.29C428.18 55.59 428.65 55.19 430.63 55.35Z" id="coUZQ6qH1"></path><path d="M216.73 55.39C219.51 55.71 222.32 55.71 225.09 55.43C227.98 55.15 228.73 55.23 228.73 57.45C228.65 78.04 228.69 98.59 228.69 119.18C228.69 134.22 228.65 149.27 228.73 164.28C228.73 166.14 228.18 166.45 225.68 166.18C222.87 165.86 220.02 165.82 217.21 166.14C214.36 166.45 213.61 166.34 213.61 164.24C213.65 146.42 213.61 128.6 213.61 110.78C213.61 92.96 213.65 75.19 213.57 57.37C213.57 55.43 214.12 55.11 216.73 55.39Z" id="e21tHtW6oE"></path><path d="M507.91 82.13L509.82 82.37L511.73 82.69L513.62 83.1L515.49 83.6L517.34 84.18L519.16 84.85L520.95 85.6L522.7 86.45L524.42 87.38L526.09 88.4L527.72 89.51L529.29 90.71L530.81 92L532.27 93.39L533.67 94.86L535 96.43L536.25 98.09L537.43 99.85L538.54 101.7L539.55 103.64L540.48 105.69L541.32 107.82L542.06 110.06L542.7 112.39L543.24 114.82L543.39 115.61L543.53 116.39L543.66 117.18L543.78 117.96L543.88 118.75L543.98 119.53L544.06 120.31L544.14 121.09L544.2 121.87L544.25 122.65L544.29 123.43L544.32 124.2L544.33 124.98L544.34 125.75L544.33 126.52L544.31 127.3L544.28 128.07L544.24 128.83L544.18 129.6L544.11 130.37L544.03 131.13L543.94 131.9L543.83 132.66L543.71 133.42L543.58 134.18L543.44 134.93L543.28 135.69L543.11 136.44L542.93 137.2L542.73 137.95L542.52 138.69L542.06 140.19L541.54 141.67L541.26 142.41L540.96 143.15L540.65 143.88L540.33 144.62L539.99 145.35L539.5 146.37L538.98 147.37L538.45 148.35L537.9 149.3L537.33 150.23L536.74 151.13L536.14 152.01L535.52 152.87L534.88 153.7L534.23 154.51L533.56 155.3L532.87 156.06L532.17 156.79L531.45 157.51L530.72 158.2L529.96 158.86L529.19 159.51L528.41 160.13L527.61 160.72L526.79 161.3L525.96 161.85L525.11 162.37L524.24 162.88L523.36 163.36L522.46 163.81L521.55 164.25L520.62 164.66L519.68 165.05L518.72 165.41L517.74 165.75L516.75 166.07L515.75 166.37L514.73 166.64L513.69 166.89L512.64 167.12L511.58 167.32L510.5 167.51L509.4 167.67L508.29 167.8L507.17 167.92L506.29 167.99L505.42 168.05L504.55 168.09L503.69 168.12L502.83 168.13L501.97 168.12L501.12 168.1L500.27 168.06L499.43 168.01L498.59 167.94L497.76 167.86L496.93 167.76L496.1 167.64L495.29 167.5L494.47 167.35L493.66 167.19L492.86 167L492.06 166.8L491.26 166.58L490.48 166.35L489.69 166.1L488.91 165.83L488.14 165.55L487.37 165.24L486.61 164.92L485.86 164.58L485.1 164.23L484.36 163.86L483.62 163.47L482.89 163.06L482.16 162.63L481.44 162.19L480.72 161.73L480.01 161.25L479.31 160.75L478.61 160.23L477.92 159.7L477.24 159.14L476.56 158.57L475.89 157.98L475.33 157.48L474.79 156.96L474.26 156.44L473.75 155.92L473.24 155.39L472.75 154.85L472.27 154.3L471.81 153.75L471.35 153.19L470.91 152.62L470.48 152.05L470.06 151.47L469.65 150.89L469.26 150.3L468.5 149.1L468.14 148.49L467.46 147.25L467.13 146.62L466.82 145.99L466.52 145.35L466.22 144.7L465.94 144.05L465.67 143.4L465.41 142.74L465.16 142.07L464.93 141.4L464.7 140.72L464.48 140.03L464.27 139.35L463.89 137.95L463.71 137.25L463.55 136.54L463.39 135.82L463.24 135.1L463.11 134.38L462.98 133.65L462.86 132.92L462.83 132.71L462.8 132.49L462.74 132.07L462.72 131.86L462.69 131.65L462.67 131.43L462.64 131.22L462.62 131L462.6 130.79L462.54 130.13L462.53 129.91L462.51 129.69L462.49 129.46L462.48 129.24L462.46 129.01L462.45 128.77L462.44 128.54L462.42 128.31L462.41 128.07L462.4 127.83L462.39 127.58L462.37 127.34L462.36 127.09L462.35 126.83L462.34 126.58L462.32 126.06L462.31 125.79L462.29 125.52L462.28 125.25L462.26 124.69L462.24 124.4L462.23 124.11L462.22 123.82L462.2 123.52L462.19 123.22L462.23 122.18L462.29 121.16L462.36 120.13L462.46 119.11L462.57 118.1L462.7 117.09L462.85 116.09L463.01 115.09L463.2 114.1L463.41 113.11L463.64 112.14L463.88 111.17L464.15 110.2L464.44 109.25L464.75 108.3L465.09 107.36L465.45 106.43L465.82 105.51L466.23 104.6L466.65 103.7L467.1 102.81L467.58 101.93L468.08 101.06L468.6 100.2L469.15 99.35L469.73 98.52L470.33 97.7L470.95 96.88L471.61 96.09L472.29 95.3L473 94.53L473.74 93.77L474.5 93.03L475.3 92.3L476.12 91.59L476.97 90.89L477.85 90.21L478.76 89.54L479.71 88.89L480.68 88.25L482.27 87.3L483.9 86.42L485.58 85.62L487.31 84.89L489.07 84.24L490.87 83.67L492.7 83.18L494.55 82.76L496.42 82.43L498.32 82.18L500.22 82L502.14 81.91L504.06 81.9L505.99 81.97L507.91 82.13ZM500.98 94.75L499.82 94.85L498.67 95L497.53 95.2L496.41 95.44L495.31 95.74L494.22 96.08L493.15 96.46L492.11 96.9L491.09 97.37L490.1 97.89L489.14 98.45L488.21 99.05L487.32 99.7L486.46 100.38L485.64 101.1L484.86 101.87L484.13 102.67L483.68 103.19L483.24 103.73L482.83 104.27L482.43 104.81L482.05 105.36L481.68 105.92L481.33 106.48L480.99 107.05L480.37 108.19L480.08 108.78L479.81 109.36L479.55 109.95L479.3 110.55L479.06 111.15L478.84 111.75L478.64 112.36L478.44 112.98L478.26 113.59L478.09 114.21L477.93 114.84L477.79 115.46L477.65 116.09L477.53 116.73L477.31 118.01L477.22 118.65L477.14 119.3L477 120.6L476.95 121.25L476.9 121.91L476.86 122.57L476.83 123.23L476.81 123.9L476.8 124.56L476.81 124.82L476.83 125.32L476.85 125.58L476.86 125.83L476.87 126.08L476.91 126.58L476.92 126.83L477 127.83L477.03 128.08L477.05 128.33L477.08 128.58L477.1 128.83L477.13 129.08L477.16 129.32L477.19 129.57L477.22 129.82L477.26 130.06L477.29 130.31L477.33 130.55L477.37 130.8L477.41 131.04L477.45 131.29L477.5 131.53L477.54 131.78L477.59 132.02L477.64 132.26L477.69 132.5L477.74 132.75L477.79 132.99L477.91 133.47L478.18 134.48L478.49 135.48L478.83 136.48L479.19 137.47L479.59 138.44L480.02 139.4L480.49 140.35L480.98 141.28L481.5 142.2L482.05 143.1L482.63 143.97L483.24 144.83L483.87 145.67L484.54 146.48L485.23 147.26L485.95 148.02L486.7 148.75L487.47 149.45L488.27 150.12L489.1 150.76L489.95 151.36L490.83 151.93L491.73 152.46L492.66 152.96L493.61 153.41L494.58 153.82L495.58 154.19L496.6 154.52L497.65 154.8L498.72 155.03L499.81 155.21L500.92 155.35L502.06 155.44L503.21 155.47L504.39 155.44L505.59 155.37L506.16 155.31L506.74 155.24L507.31 155.17L508.43 154.99L508.99 154.89L509.54 154.77L510.08 154.65L510.63 154.52L511.16 154.37L511.69 154.22L512.22 154.06L512.74 153.88L513.25 153.7L513.76 153.5L514.26 153.29L514.76 153.07L515.25 152.84L515.74 152.6L516.22 152.35L517.16 151.81L517.62 151.52L518.08 151.21L518.53 150.9L518.97 150.57L519.41 150.23L519.84 149.88L520.27 149.52L520.68 149.14L521.1 148.74L521.5 148.34L521.9 147.92L522.29 147.49L522.67 147.04L523.05 146.58L523.81 145.57L524.53 144.53L525.19 143.46L525.82 142.35L526.39 141.21L526.92 140.05L527.41 138.86L527.84 137.65L528.23 136.41L528.58 135.16L528.88 133.89L529.14 132.61L529.34 131.32L529.51 130.01L529.63 128.7L529.7 127.39L529.73 126.07L529.71 124.75L529.65 123.43L529.54 122.11L529.39 120.8L529.19 119.5L528.95 118.2L528.67 116.92L528.34 115.66L527.96 114.41L527.55 113.17L527.09 111.96L526.58 110.78L526.03 109.61L525.44 108.48L524.8 107.38L524.12 106.3L523.4 105.27L522.63 104.26L521.82 103.3L520.91 102.31L519.96 101.38L518.98 100.52L517.97 99.72L516.94 98.98L515.88 98.31L514.8 97.69L513.71 97.14L512.59 96.64L511.46 96.2L510.32 95.82L509.16 95.5L508 95.23L506.83 95.02L505.66 94.86L504.48 94.75L503.31 94.7L502.14 94.7L500.98 94.75Z" id="a3rjqG9FME"></path><path d="M161.15 94C167.14 99.07 167.97 101.02 167.29 104.83C166.51 109.19 162.46 110.47 158.15 109.65C156.65 109.34 155.65 111.91 155.28 113.09C152.15 123.34 148.39 130.84 141.72 139.28C132.01 151.54 119.31 158.8 103.74 160.11C76.7 162.43 56.96 150.31 42.8 127.99C39.67 123.04 37.45 117.69 36.13 111.97C35.95 111.29 36 110.83 34.91 111.02C30.33 111.65 27.78 110.96 26.28 107.14C24.78 103.38 26.4 101.5 29.72 98.92C33.94 95.65 38.43 93.95 43.56 93.37C46.1 93.09 49.8 92.47 52.44 93.15C56.11 94.1 57.78 95.33 58.51 98.92C59.28 102.64 57.1 104.3 54.01 106.57C53.2 107.16 52.7 107.48 53.2 108.7C59.59 123.18 69.17 134.47 84.69 139.51C103.56 145.64 122.35 137.79 131.42 120.23C134.28 114.69 136.75 109.36 138.61 103.46C139.02 102.19 138.41 101.17 137 100.76C133.51 99.81 130.82 97.42 130.72 94.35C130.62 91.27 131.82 89.32 135.27 87.69C138.31 86.37 141.27 86.51 145.96 87.08C150.65 87.64 155.15 88.93 161.15 94Z" id="bqgCLrs2m"></path><path d="M70.85 50.49C77.52 50.17 83.73 56.34 84.14 63.05C84.64 71.04 78.79 77.35 71.53 77.57C63.45 77.8 56.83 70.81 57.73 64.01C56.83 57.7 62.77 50.85 70.85 50.49Z" id="alcDbzP94"></path><path d="M116.99 47.63C124.21 47.47 130.33 53.66 130.38 60.83C130.42 68.18 124.16 74.44 116.81 74.4C109.73 74.31 103.84 68.49 103.61 61.83C103.26 52.13 110.34 47.77 116.99 47.63Z" id="dgUrliyyY"></path></defs><g><g><g><use xlink:href="#cfTw1uN67" opacity="1" fill="#ffffff" fill-opacity="1"></use><g><use xlink:href="#cfTw1uN67" opacity="1" fill-opacity="0" stroke="#000000" stroke-width="3" stroke-opacity="0"></use></g></g><g><use xlink:href="#bDw7Io9J" opacity="1" fill="#448aff" fill-opacity="1"></use><g><use xlink:href="#bDw7Io9J" opacity="1" fill-opacity="0" stroke="#000000" stroke-width="3" stroke-opacity="0"></use></g></g><g><use xlink:href="#a17raxbtSB" opacity="1" fill="#ffffff" fill-opacity="1"></use><g><use xlink:href="#a17raxbtSB" opacity="1" fill-opacity="0" stroke="#000000" stroke-width="1" stroke-opacity="0"></use></g></g><g><use xlink:href="#abniPz5xN" opacity="1" fill="#ffffff" fill-opacity="1"></use><g><use xlink:href="#abniPz5xN" opacity="1" fill-opacity="0" stroke="#000000" stroke-width="1" stroke-opacity="0"></use></g></g><g><use xlink:href="#coUZQ6qH1" opacity="1" fill="#ffffff" fill-opacity="1"></use><g><use xlink:href="#coUZQ6qH1" opacity="1" fill-opacity="0" stroke="#000000" stroke-width="1" stroke-opacity="0"></use></g></g><g><use xlink:href="#e21tHtW6oE" opacity="1" fill="#ffffff" fill-opacity="1"></use><g><use xlink:href="#e21tHtW6oE" opacity="1" fill-opacity="0" stroke="#000000" stroke-width="1" stroke-opacity="0"></use></g></g><g><use xlink:href="#a3rjqG9FME" opacity="1" fill="#ffffff" fill-opacity="1"></use><g><use xlink:href="#a3rjqG9FME" opacity="1" fill-opacity="0" stroke="#000000" stroke-width="1" stroke-opacity="0"></use></g></g><g><use xlink:href="#bqgCLrs2m" opacity="1" fill="#fefefe" fill-opacity="1"></use><g><use xlink:href="#bqgCLrs2m" opacity="1" fill-opacity="0" stroke="#000000" stroke-width="1" stroke-opacity="0"></use></g></g><g><use xlink:href="#alcDbzP94" opacity="1" fill="#fefefe" fill-opacity="1"></use><g><use xlink:href="#alcDbzP94" opacity="1" fill-opacity="0" stroke="#000000" stroke-width="1" stroke-opacity="0"></use></g></g><g><use xlink:href="#dgUrliyyY" opacity="1" fill="#fefefe" fill-opacity="1"></use><g><use xlink:href="#dgUrliyyY" opacity="1" fill-opacity="0" stroke="#000000" stroke-width="1" stroke-opacity="0"></use></g></g></g></g></svg>