<?xml version="1.0" encoding="UTF-8" standalone="no"?>
<!DOCTYPE svg PUBLIC "-//W3C//DTD SVG 1.1//EN" "http://www.w3.org/Graphics/SVG/1.1/DTD/svg11.dtd">
<svg version="1.1" xmlns="http://www.w3.org/2000/svg" xmlns:xlink="http://www.w3.org/1999/xlink" preserveAspectRatio="xMidYMid meet" viewBox="0 0 640 220" width="640" height="220"><defs><path d="M32.17 15.08C42.47 15.08 153.64 14.98 161.98 15.08C170.31 15.19 183.41 24.31 183.32 36.61C183.23 48.92 183.32 155.17 183.32 167.39C183.32 179.6 174.07 189.04 160.57 189C117.88 188.92 44.35 189.12 32.54 189C20.72 188.87 9.38 178.51 9.5 167.39C9.63 156.27 9.54 123.76 9.54 101.9C9.54 80.29 9.04 48.9 9.54 37.03C10.05 25.16 21.88 15.08 32.17 15.08Z" id="d3tGh8GeE8"></path><path d="M34.26 18.89C75.96 18.89 117.69 18.89 159.39 18.89C170.12 18.89 177.96 25.59 179.7 36.16C179.9 37.27 179.86 38.37 179.86 39.52C179.86 81.31 179.86 123.09 179.86 164.87C179.86 177.55 170.99 185.63 158.04 185.59C117.1 185.51 76.2 185.47 35.25 185.59C22.31 185.63 13.2 177.63 13.16 164.87C13.2 143.97 13.2 123.05 13.2 102.1C13.2 81.39 13.2 60.64 13.2 39.93C13.2 27.21 21.55 18.89 34.26 18.89Z" id="d1biwqtKKP"></path><path d="M305.96 83.4C312.18 85.42 316.46 89.77 319.31 95.6C319.82 96.66 320.26 97.73 320.77 98.92C322.35 96.94 323.82 95.04 325.36 93.18C333.96 82.96 347.62 79.04 359.42 83.48C368.4 86.84 372.84 93.81 374.78 102.8C375.53 106.37 375.77 110.01 375.77 113.61C375.81 130.36 375.73 147.15 375.85 163.9C375.85 166.04 375.14 166.19 372.6 165.96C369.71 165.68 366.82 165.72 363.93 166C361.91 166.19 361.52 165.76 361.52 164.14C361.55 147.7 361.55 131.27 361.55 114.84C361.55 111 361.24 107.2 359.77 103.59C356.53 95.52 348.57 92.15 340.45 95.4C334.27 97.85 329.92 102.41 325.8 107.39C323.5 110.17 322.59 113.1 322.67 116.78C322.87 132.5 322.71 148.18 322.79 163.9C322.79 166.27 321.96 166.23 318.55 165.84C316.3 165.6 313.96 165.6 311.7 165.88C308.97 166.23 308.42 166 308.46 164.14C308.5 147.7 308.5 131.27 308.5 114.84C308.5 111 308.18 107.2 306.71 103.59C303.55 95.71 296.26 92.43 287.99 95.2C281.57 97.34 277.1 101.89 272.86 106.88C270.48 109.69 269.57 112.66 269.61 116.42C269.81 132.26 269.65 148.1 269.73 163.94C269.73 166.04 269.14 166.39 265.57 165.8C263.56 165.44 261.46 165.44 259.4 165.8C255.87 166.39 255.4 165.96 255.4 163.94C255.44 138.52 255.44 113.14 255.44 87.72C255.44 83.64 255.44 83.64 259.6 83.64C262.25 83.64 264.86 83.72 267.51 83.6C268.98 83.52 269.26 84.03 269.22 85.38C269.1 89.14 269.14 92.94 269.14 97.22C271.75 93.85 274.13 90.92 277.14 88.55C285.85 81.7 295.51 79.99 305.96 83.4Z" id="a5iUP0pM7k"></path><path d="M614.76 84.07C615.27 82.61 615.79 82.33 617.21 82.92C620.5 84.31 623.82 85.54 627.15 86.77C628.22 87.16 628.58 87.48 628.14 88.71C617.73 117.02 607.39 145.37 596.9 173.68C594.05 181.36 590.21 188.57 584.23 194.43C579.24 199.34 573.14 202.03 566.25 202.5C560.59 202.9 554.89 202.82 549.58 200.25C548.08 199.49 547.99 198.93 548.96 196.19C549.53 194.55 549.5 194.69 549.86 193.86C550.23 193.03 550.27 192.22 550.57 191.43C550.86 190.63 550.97 187.58 552.71 188.29C558.81 190.78 564.98 191.5 571.04 188.33C575.6 185.91 578.37 181.76 580.66 177.36C583.55 171.82 584.35 169.01 584.35 169.01C584.35 169.01 582.09 163.82 579.56 158.31C569.85 136.3 560.07 114.32 550.29 92.31C549.78 91.12 549.3 89.85 548.67 88.71C548.08 87.6 548.39 87.16 549.5 86.73C551.1 86.07 552.53 85.61 554.44 84.7C556.36 83.8 557.36 83.29 558.89 82.53C560.39 81.78 560.99 81.97 561.7 83.56C569.3 100.7 576.98 117.77 584.62 134.87C586 137.91 588.1 142.45 590.93 148.48C591 148.62 591.56 149.74 591.63 149.88C595.57 138.77 598.51 130.43 600.46 124.86C605.25 111.28 610.04 97.69 614.76 84.07Z" id="bTW6eMgSU"></path><path d="M430.45 55.09C433.78 55.37 437.1 55.37 440.39 55.09C442.49 54.93 443.08 55.21 443.08 57.11C443 75.12 443.08 93.14 443.04 111.12C443.04 118.96 443.28 126.84 442.84 134.68C442.57 139.9 441.62 145.01 439.68 149.88C435.68 159.9 428.39 165.92 417.66 167.38C407.17 168.85 397.51 166.67 389.07 159.94C387.77 158.91 387.56 158.3 389.35 156.14C391.14 153.98 389.35 156.14 389.35 156.14C390.47 155.39 392.25 152.24 393.02 151C393.79 149.77 394.58 146.83 396.04 148.18C399.73 151.66 404.04 154.04 409.07 154.67C418.57 155.86 424.87 151.07 426.97 141.45C427.8 137.57 427.96 133.61 428 129.65C428.04 118.56 428.04 107.47 428.04 96.39C428.04 83.28 428.08 70.14 428 57.03C428 55.33 428.47 54.93 430.45 55.09Z" id="hfoH9AAig"></path><path d="M216.55 55.13C219.33 55.45 222.14 55.45 224.91 55.17C227.8 54.89 228.55 54.97 228.55 57.19C228.47 77.78 228.51 98.33 228.51 118.92C228.51 133.96 228.47 149.01 228.55 164.02C228.55 165.88 228 166.19 225.5 165.92C222.69 165.6 219.84 165.56 217.03 165.88C214.18 166.19 213.43 166.08 213.43 163.98C213.47 146.16 213.43 128.34 213.43 110.52C213.43 92.7 213.47 74.93 213.39 57.11C213.39 55.17 213.94 54.85 216.55 55.13Z" id="d1fwQfWThk"></path><path d="M507.73 81.87L509.64 82.11L511.55 82.43L513.44 82.84L515.31 83.34L517.16 83.92L518.98 84.59L520.77 85.34L522.52 86.19L524.24 87.12L525.91 88.14L527.54 89.25L529.11 90.45L530.63 91.74L532.09 93.13L533.49 94.6L534.82 96.17L536.07 97.83L537.25 99.59L538.36 101.44L539.37 103.38L540.3 105.43L541.14 107.56L541.88 109.8L542.52 112.13L543.06 114.56L543.21 115.35L543.35 116.13L543.48 116.92L543.6 117.7L543.7 118.49L543.8 119.27L543.96 120.83L544.02 121.61L544.07 122.39L544.11 123.17L544.14 123.94L544.15 124.72L544.16 125.49L544.15 126.26L544.13 127.04L544.1 127.81L544.06 128.57L544 129.34L543.93 130.11L543.85 130.87L543.76 131.64L543.65 132.4L543.53 133.16L543.4 133.92L543.26 134.67L543.1 135.43L542.93 136.18L542.75 136.94L542.55 137.69L542.34 138.43L541.88 139.93L541.36 141.41L541.08 142.15L540.78 142.89L540.47 143.62L540.15 144.36L539.81 145.09L539.32 146.11L538.8 147.11L538.27 148.09L537.72 149.04L537.15 149.97L536.56 150.87L535.96 151.75L535.34 152.61L534.7 153.44L534.05 154.25L533.38 155.04L532.69 155.8L531.99 156.53L531.27 157.25L530.54 157.94L529.78 158.6L529.01 159.25L528.23 159.87L527.43 160.46L526.61 161.04L525.78 161.59L524.93 162.11L524.06 162.62L523.18 163.1L522.28 163.55L521.37 163.99L520.44 164.4L519.5 164.79L518.54 165.15L517.56 165.49L516.57 165.81L515.57 166.11L514.55 166.38L513.51 166.63L512.46 166.86L511.4 167.06L510.32 167.25L509.22 167.41L508.11 167.54L506.99 167.66L506.11 167.73L505.24 167.79L504.37 167.83L503.51 167.86L502.65 167.87L501.79 167.86L500.94 167.84L500.09 167.8L499.25 167.75L498.41 167.68L497.58 167.6L496.75 167.5L495.92 167.38L495.11 167.24L494.29 167.09L493.48 166.93L492.68 166.74L491.88 166.54L491.08 166.32L490.3 166.09L489.51 165.84L488.73 165.57L487.96 165.29L487.19 164.98L486.43 164.66L485.68 164.32L484.92 163.97L484.18 163.6L483.44 163.21L482.71 162.8L481.98 162.37L481.26 161.93L480.54 161.47L479.83 160.99L479.13 160.49L478.43 159.97L477.74 159.44L477.06 158.88L476.38 158.31L475.71 157.72L475.15 157.22L474.61 156.7L474.08 156.18L473.57 155.66L473.06 155.13L472.57 154.59L472.09 154.04L471.63 153.49L471.17 152.93L470.73 152.36L470.3 151.79L469.88 151.21L469.47 150.63L469.08 150.04L468.32 148.84L467.96 148.23L467.28 146.99L466.95 146.36L466.64 145.73L466.34 145.09L466.04 144.44L465.76 143.79L465.49 143.14L465.23 142.48L464.98 141.81L464.75 141.14L464.52 140.46L464.3 139.77L464.09 139.09L463.71 137.69L463.53 136.99L463.37 136.28L463.21 135.56L463.06 134.84L462.93 134.12L462.8 133.39L462.68 132.66L462.65 132.45L462.62 132.23L462.56 131.81L462.54 131.6L462.51 131.39L462.49 131.17L462.46 130.96L462.44 130.74L462.42 130.53L462.36 129.87L462.35 129.65L462.33 129.43L462.31 129.2L462.3 128.98L462.28 128.75L462.27 128.51L462.26 128.28L462.24 128.05L462.22 127.57L462.21 127.32L462.19 127.08L462.18 126.83L462.17 126.57L462.16 126.32L462.14 125.8L462.13 125.53L462.11 125.26L462.1 124.99L462.08 124.43L462.06 124.14L462.04 123.56L462.02 123.26L462.01 122.96L462.05 121.92L462.11 120.9L462.18 119.87L462.28 118.85L462.39 117.84L462.52 116.83L462.67 115.83L462.83 114.83L463.02 113.84L463.23 112.85L463.46 111.88L463.7 110.91L463.97 109.94L464.26 108.99L464.57 108.04L464.91 107.1L465.27 106.17L465.64 105.25L466.05 104.34L466.47 103.44L466.92 102.55L467.4 101.67L467.9 100.8L468.42 99.94L468.97 99.09L469.55 98.26L470.15 97.44L470.77 96.62L471.43 95.83L472.11 95.04L472.82 94.27L473.56 93.51L474.32 92.77L475.12 92.04L475.94 91.33L476.79 90.63L477.67 89.95L478.58 89.28L479.53 88.63L480.5 87.99L482.09 87.04L483.72 86.16L485.4 85.36L487.13 84.63L488.89 83.98L490.69 83.41L492.52 82.92L494.37 82.5L496.24 82.17L498.14 81.92L500.04 81.74L501.96 81.65L503.88 81.64L505.81 81.71L507.73 81.87ZM500.8 94.49L499.64 94.59L498.49 94.74L497.35 94.94L496.23 95.18L495.13 95.48L494.04 95.82L492.97 96.2L491.93 96.64L490.91 97.11L489.92 97.63L488.96 98.19L488.03 98.79L487.14 99.44L486.28 100.12L485.46 100.84L484.68 101.61L483.95 102.41L483.5 102.93L483.06 103.47L482.65 104.01L482.25 104.55L481.87 105.1L481.5 105.66L481.15 106.22L480.81 106.79L480.19 107.93L479.9 108.52L479.63 109.1L479.37 109.69L479.12 110.29L478.88 110.89L478.66 111.49L478.46 112.1L478.26 112.72L478.08 113.33L477.91 113.95L477.75 114.58L477.61 115.2L477.47 115.83L477.35 116.47L477.13 117.75L477.04 118.39L476.96 119.04L476.82 120.34L476.77 120.99L476.72 121.65L476.68 122.31L476.65 122.97L476.63 123.64L476.62 124.3L476.63 124.56L476.65 125.06L476.67 125.32L476.69 125.82L476.73 126.32L476.74 126.57L476.82 127.57L476.85 127.82L476.87 128.07L476.9 128.32L476.92 128.57L476.95 128.82L476.98 129.06L477.04 129.56L477.08 129.8L477.11 130.05L477.15 130.29L477.19 130.54L477.23 130.78L477.27 131.03L477.32 131.27L477.36 131.52L477.51 132.24L477.56 132.49L477.61 132.73L477.73 133.21L478 134.22L478.31 135.22L478.65 136.22L479.01 137.21L479.41 138.18L479.84 139.14L480.31 140.09L480.8 141.02L481.32 141.94L481.87 142.84L482.45 143.71L483.06 144.57L483.69 145.41L484.36 146.22L485.05 147L485.77 147.76L486.52 148.49L487.29 149.19L488.09 149.86L488.92 150.5L489.77 151.1L490.65 151.67L491.55 152.2L492.48 152.7L493.43 153.15L494.4 153.56L495.4 153.93L496.42 154.26L497.47 154.54L498.54 154.77L499.63 154.95L500.74 155.09L501.88 155.18L503.03 155.21L504.21 155.18L505.41 155.11L505.98 155.05L506.56 154.98L507.13 154.91L508.25 154.73L508.81 154.63L509.36 154.51L509.9 154.39L510.45 154.26L511.51 153.96L512.04 153.8L512.56 153.62L513.07 153.44L513.58 153.24L514.08 153.03L514.58 152.81L515.07 152.58L515.56 152.34L516.04 152.09L516.98 151.55L517.44 151.26L517.9 150.95L518.35 150.64L518.79 150.31L519.23 149.97L519.66 149.62L520.09 149.26L520.5 148.88L520.92 148.48L521.32 148.08L521.72 147.66L522.11 147.23L522.49 146.78L522.87 146.32L523.63 145.31L524.35 144.27L525.01 143.2L525.64 142.09L526.21 140.95L526.74 139.79L527.23 138.6L527.66 137.39L528.05 136.15L528.4 134.9L528.7 133.63L528.96 132.35L529.16 131.06L529.33 129.75L529.45 128.44L529.52 127.13L529.55 125.81L529.53 124.49L529.47 123.17L529.36 121.85L529.21 120.54L529.01 119.24L528.77 117.94L528.49 116.66L528.16 115.4L527.78 114.15L527.37 112.91L526.91 111.7L526.4 110.52L525.85 109.35L525.26 108.22L524.62 107.12L523.94 106.04L523.22 105.01L522.45 104L521.64 103.04L520.73 102.05L519.78 101.12L518.8 100.26L517.79 99.46L516.76 98.72L515.7 98.05L514.62 97.43L513.53 96.88L512.41 96.38L511.28 95.94L510.14 95.56L508.98 95.24L507.82 94.97L506.65 94.76L505.48 94.6L504.3 94.49L503.13 94.44L501.96 94.44L500.8 94.49Z" id="aaTZOGGzy"></path><path d="M160.97 93.74C166.96 98.81 167.79 100.76 167.11 104.58C166.34 108.93 162.28 110.21 157.97 109.4C156.47 109.08 155.47 111.65 155.1 112.83C151.97 123.08 148.21 130.59 141.54 139.02C131.83 151.28 119.13 158.54 103.56 159.85C76.52 162.17 56.78 150.05 42.63 127.73C39.5 122.78 37.27 117.43 35.96 111.71C35.77 111.03 35.82 110.57 34.73 110.76C30.15 111.39 27.6 110.7 26.1 106.89C24.61 103.12 26.23 101.24 29.54 98.66C33.76 95.39 38.25 93.7 43.38 93.11C45.92 92.83 49.63 92.21 52.26 92.89C55.93 93.84 57.6 95.07 58.33 98.66C59.1 102.38 56.92 104.04 53.83 106.31C53.02 106.9 52.52 107.22 53.02 108.44C59.41 122.92 68.99 134.22 84.51 139.25C103.38 145.38 122.17 137.53 131.24 119.97C134.1 114.43 136.57 109.1 138.43 103.2C138.84 101.93 138.23 100.91 136.82 100.5C133.33 99.55 130.64 97.17 130.54 94.09C130.44 91.01 131.64 89.06 135.09 87.43C138.13 86.11 141.09 86.25 145.78 86.82C150.47 87.39 154.98 88.67 160.97 93.74Z" id="g3v9M5pdt"></path><path d="M70.67 50.23C77.34 49.91 83.55 56.08 83.96 62.8C84.46 70.78 78.61 77.09 71.35 77.32C63.27 77.54 56.65 70.55 57.55 63.75C56.65 57.44 62.59 50.59 70.67 50.23Z" id="ieBfhiFJb"></path><path d="M116.81 47.37C124.03 47.21 130.15 53.4 130.2 60.57C130.24 67.92 123.98 74.18 116.63 74.14C109.55 74.05 103.67 68.24 103.43 61.57C103.08 51.87 110.17 47.51 116.81 47.37Z" id="a4P2hF8XDO"></path></defs><g><g><g><use xlink:href="#d3tGh8GeE8" opacity="1" fill="#ffffff" fill-opacity="1"></use><g><use xlink:href="#d3tGh8GeE8" opacity="1" fill-opacity="0" stroke="#000000" stroke-width="3" stroke-opacity="0"></use></g></g><g><use xlink:href="#d1biwqtKKP" opacity="1" fill="#448aff" fill-opacity="1"></use><g><use xlink:href="#d1biwqtKKP" opacity="1" fill-opacity="0" stroke="#000000" stroke-width="3" stroke-opacity="0"></use></g></g><g><use xlink:href="#a5iUP0pM7k" opacity="1" fill="#000000" fill-opacity="1"></use><g><use xlink:href="#a5iUP0pM7k" opacity="1" fill-opacity="0" stroke="#000000" stroke-width="1" stroke-opacity="0"></use></g></g><g><use xlink:href="#bTW6eMgSU" opacity="1" fill="#000000" fill-opacity="1"></use><g><use xlink:href="#bTW6eMgSU" opacity="1" fill-opacity="0" stroke="#000000" stroke-width="1" stroke-opacity="0"></use></g></g><g><use xlink:href="#hfoH9AAig" opacity="1" fill="#000000" fill-opacity="1"></use><g><use xlink:href="#hfoH9AAig" opacity="1" fill-opacity="0" stroke="#000000" stroke-width="1" stroke-opacity="0"></use></g></g><g><use xlink:href="#d1fwQfWThk" opacity="1" fill="#000000" fill-opacity="1"></use><g><use xlink:href="#d1fwQfWThk" opacity="1" fill-opacity="0" stroke="#000000" stroke-width="1" stroke-opacity="0"></use></g></g><g><use xlink:href="#aaTZOGGzy" opacity="1" fill="#000000" fill-opacity="1"></use><g><use xlink:href="#aaTZOGGzy" opacity="1" fill-opacity="0" stroke="#000000" stroke-width="1" stroke-opacity="0"></use></g></g><g><use xlink:href="#g3v9M5pdt" opacity="1" fill="#fefefe" fill-opacity="1"></use><g><use xlink:href="#g3v9M5pdt" opacity="1" fill-opacity="0" stroke="#000000" stroke-width="1" stroke-opacity="0"></use></g></g><g><use xlink:href="#ieBfhiFJb" opacity="1" fill="#fefefe" fill-opacity="1"></use><g><use xlink:href="#ieBfhiFJb" opacity="1" fill-opacity="0" stroke="#000000" stroke-width="1" stroke-opacity="0"></use></g></g><g><use xlink:href="#a4P2hF8XDO" opacity="1" fill="#fefefe" fill-opacity="1"></use><g><use xlink:href="#a4P2hF8XDO" opacity="1" fill-opacity="0" stroke="#000000" stroke-width="1" stroke-opacity="0"></use></g></g></g></g></svg>