<?xml version="1.0" encoding="UTF-8" standalone="no"?>
<!DOCTYPE svg PUBLIC "-//W3C//DTD SVG 1.1//EN" "http://www.w3.org/Graphics/SVG/1.1/DTD/svg11.dtd">
<svg version="1.1" xmlns="http://www.w3.org/2000/svg" xmlns:xlink="http://www.w3.org/1999/xlink" preserveAspectRatio="xMidYMid meet" viewBox="0 0 320 320" width="320" height="320"><defs><path d="M281.7 0.19C302.4 0.19 317.54 13.05 320.89 33.33C321.29 35.46 321.21 37.57 321.21 39.78C321.21 119.95 321.21 200.11 321.21 280.26C321.21 304.58 304.08 320.08 279.09 320C200.09 319.85 121.14 319.77 42.11 320C17.13 320.08 -0.46 304.73 -0.53 280.26C-0.46 240.16 -0.46 200.02 -0.46 159.83C-0.46 120.11 -0.46 80.29 -0.46 40.54C-0.46 16.15 15.67 0.19 40.19 0.19C120.67 0.19 201.21 0.19 281.7 0.19Z" id="cAEvDelrl"></path><path d="M280.69 0.19C301.4 0.19 316.53 13.05 319.89 33.33C320.29 35.46 320.21 37.57 320.21 39.78C320.21 119.95 320.21 200.11 320.21 280.26C320.21 304.58 303.08 320.08 278.08 320C199.08 319.85 120.14 319.77 41.11 320C16.13 320.08 -1.46 304.73 -1.54 280.26C-1.46 240.16 -1.46 200.02 -1.46 159.83C-1.46 120.11 -1.46 80.29 -1.46 40.54C-1.46 16.15 14.67 0.19 39.18 0.19C119.67 0.19 200.21 0.19 280.69 0.19Z" id="b2rkuRQ0eA"></path><path d="M296.59 164.57C295.11 172.93 287.27 175.39 278.95 173.82C276.07 173.22 274.13 178.14 273.43 180.4C267.39 200.08 260.12 214.48 247.25 230.67C228.51 254.17 203.99 268.1 173.95 270.63C121.75 275.06 83.66 251.83 56.35 208.99C50.29 199.51 46 189.23 43.47 178.26C43.12 176.96 43.21 176.09 41.1 176.44C32.25 177.65 27.34 176.32 24.44 169.01C21.56 161.79 24.69 158.19 31.08 153.22C39.23 146.96 47.89 143.71 57.8 142.57C62.69 142.05 69.85 140.85 74.93 142.16C82.02 143.98 85.24 146.35 86.65 153.22C88.13 160.36 83.93 163.55 77.97 167.9C76.39 169.04 75.43 169.65 76.39 172C88.74 199.77 107.21 221.44 137.16 231.1C173.6 242.86 209.85 227.8 227.37 194.11C232.89 183.49 237.65 173.25 241.25 161.94C242.03 159.49 240.85 157.55 238.14 156.76C231.39 154.94 226.22 150.36 226.02 144.45C225.82 138.54 228.14 134.82 234.8 131.69C240.67 129.15 246.38 129.42 255.44 130.51C264.49 131.59 273.18 134.06 284.73 143.8C296.3 153.52 297.9 157.26 296.59 164.57Z" id="f1gLuJyl4K"></path><path d="M296.59 164.57C295.11 172.93 287.27 175.39 278.95 173.82C276.07 173.22 274.13 178.14 273.43 180.4C267.39 200.08 260.12 214.48 247.25 230.67C228.51 254.17 203.99 268.1 173.95 270.63C121.75 275.06 83.66 251.83 56.35 208.99C50.29 199.51 46 189.23 43.47 178.26C43.12 176.96 43.21 176.09 41.1 176.44C32.25 177.65 27.34 176.32 24.44 169.01C21.56 161.79 24.69 158.19 31.08 153.22C39.23 146.96 47.89 143.71 57.8 142.57C62.69 142.05 69.85 140.85 74.93 142.16C82.02 143.98 85.24 146.35 86.65 153.22C88.13 160.36 83.93 163.55 77.97 167.9C76.39 169.04 75.43 169.65 76.39 172C88.74 199.77 107.21 221.44 137.16 231.1C173.6 242.86 209.85 227.8 227.37 194.11C232.89 183.49 237.65 173.25 241.25 161.94C242.03 159.49 240.85 157.55 238.14 156.76C231.39 154.94 226.22 150.36 226.02 144.45C225.82 138.54 228.14 134.82 234.8 131.69C240.67 129.15 246.38 129.42 255.44 130.51C264.49 131.59 273.18 134.06 284.73 143.8C296.3 153.52 297.9 157.26 296.59 164.57Z" id="a1nEqMMNcZ"></path><path d="M136.13 84.42C137.09 99.74 125.78 111.84 111.78 112.28C96.18 112.72 83.4 99.3 85.15 86.25C83.4 74.15 94.87 61.01 110.46 60.31C123.34 59.7 135.33 71.54 136.13 84.42Z" id="a1juvqm1J"></path><path d="M136.13 84.42C137.09 99.74 125.78 111.84 111.78 112.28C96.18 112.72 83.4 99.3 85.15 86.25C83.4 74.15 94.87 61.01 110.46 60.31C123.34 59.7 135.33 71.54 136.13 84.42Z" id="c2XtFr3m0E"></path><path d="M225.35 80.15C225.44 94.26 213.36 106.28 199.17 106.19C185.51 106 174.15 94.86 173.69 82.07C173.02 63.47 186.69 55.09 199.52 54.82C213.45 54.53 225.28 66.4 225.35 80.15Z" id="actwPVe9t"></path><path d="M225.35 80.15C225.44 94.26 213.36 106.28 199.17 106.19C185.51 106 174.15 94.86 173.69 82.07C173.02 63.47 186.69 55.09 199.52 54.82C213.45 54.53 225.28 66.4 225.35 80.15Z" id="e2iJApMRER"></path></defs><g><g><g><use xlink:href="#cAEvDelrl" opacity="1" fill="#448aff" fill-opacity="1"></use><g><use xlink:href="#cAEvDelrl" opacity="1" fill-opacity="0" stroke="#000000" stroke-width="1" stroke-opacity="0"></use></g></g><g><use xlink:href="#b2rkuRQ0eA" opacity="1" fill="#000000" fill-opacity="0"></use><g><use xlink:href="#b2rkuRQ0eA" opacity="1" fill-opacity="0" stroke="#000000" stroke-width="3" stroke-opacity="0"></use></g></g><g><use xlink:href="#f1gLuJyl4K" opacity="1" fill="#fefefe" fill-opacity="1"></use><g><use xlink:href="#f1gLuJyl4K" opacity="1" fill-opacity="0" stroke="#000000" stroke-width="1" stroke-opacity="0"></use></g></g><g><use xlink:href="#a1nEqMMNcZ" opacity="1" fill="#000000" fill-opacity="0"></use><g><use xlink:href="#a1nEqMMNcZ" opacity="1" fill-opacity="0" stroke="#000000" stroke-width="1" stroke-opacity="0"></use></g></g><g><use xlink:href="#a1juvqm1J" opacity="1" fill="#fefefe" fill-opacity="1"></use><g><use xlink:href="#a1juvqm1J" opacity="1" fill-opacity="0" stroke="#000000" stroke-width="1" stroke-opacity="0"></use></g></g><g><use xlink:href="#c2XtFr3m0E" opacity="1" fill="#000000" fill-opacity="0"></use><g><use xlink:href="#c2XtFr3m0E" opacity="1" fill-opacity="0" stroke="#000000" stroke-width="1" stroke-opacity="0"></use></g></g><g><use xlink:href="#actwPVe9t" opacity="1" fill="#fefefe" fill-opacity="1"></use><g><use xlink:href="#actwPVe9t" opacity="1" fill-opacity="0" stroke="#000000" stroke-width="1" stroke-opacity="0"></use></g></g><g><use xlink:href="#e2iJApMRER" opacity="1" fill="#000000" fill-opacity="0"></use><g><use xlink:href="#e2iJApMRER" opacity="1" fill-opacity="0" stroke="#000000" stroke-width="1" stroke-opacity="0"></use></g></g></g></g></svg>