<?xml version="1.0" encoding="UTF-8" standalone="no"?>
<!-- Created with Inkscape (http://www.inkscape.org/) -->
<svg
   xmlns:dc="http://purl.org/dc/elements/1.1/"
   xmlns:cc="http://creativecommons.org/ns#"
   xmlns:rdf="http://www.w3.org/1999/02/22-rdf-syntax-ns#"
   xmlns:svg="http://www.w3.org/2000/svg"
   xmlns="http://www.w3.org/2000/svg"
   xmlns:sodipodi="http://sodipodi.sourceforge.net/DTD/sodipodi-0.dtd"
   xmlns:inkscape="http://www.inkscape.org/namespaces/inkscape"
   width="217"
   height="83"
   id="svg3592"
   sodipodi:version="0.32"
   inkscape:version="0.46"
   version="1.0"
   sodipodi:docname="Institut Pasteur.svg"
   inkscape:output_extension="org.inkscape.output.svg.inkscape">
  <defs
     id="defs3594">
    <inkscape:perspective
       sodipodi:type="inkscape:persp3d"
       inkscape:vp_x="0 : 526.18109 : 1"
       inkscape:vp_y="0 : 1000 : 0"
       inkscape:vp_z="744.09448 : 526.18109 : 1"
       inkscape:persp3d-origin="372.04724 : 350.78739 : 1"
       id="perspective3600" />
  </defs>
  <sodipodi:namedview
     id="base"
     pagecolor="#ffffff"
     bordercolor="#666666"
     borderopacity="1.0"
     inkscape:pageopacity="0.0"
     inkscape:pageshadow="2"
     inkscape:zoom="2.9570075"
     inkscape:cx="110.95594"
     inkscape:cy="59.0825"
     inkscape:document-units="px"
     inkscape:current-layer="layer1"
     showgrid="false"
     inkscape:window-width="1024"
     inkscape:window-height="712"
     inkscape:window-x="-4"
     inkscape:window-y="-4" />
  <metadata
     id="metadata3597">
    <rdf:RDF>
      <cc:Work
         rdf:about="">
        <dc:format>image/svg+xml</dc:format>
        <dc:type
           rdf:resource="http://purl.org/dc/dcmitype/StillImage" />
      </cc:Work>
    </rdf:RDF>
  </metadata>
  <g
     inkscape:label="Calque 1"
     inkscape:groupmode="layer"
     id="layer1"
     transform="translate(-163.02112,-353.27968)">
    <path
       d="M 355.51612,368.29343 L 355.49987,383.80343 C 363.51987,383.80343 368.77612,376.73468 368.77612,369.06468 C 368.77612,364.85718 366.87987,358.96218 361.65237,358.96218 C 356.80112,358.96218 355.51987,364.49593 355.51612,368.29343"
       style="fill:#005a9a;fill-opacity:1;fill-rule:nonzero;stroke:none"
       id="path157" />
    <path
       d="M 329.79862,407.63968 C 331.85487,409.30343 333.49237,409.99343 338.73487,409.99343 L 340.54862,409.99343 C 345.38737,409.99343 346.61737,408.59593 346.61737,405.17593 C 346.61737,402.03343 346.59862,389.80093 346.59862,389.80093 C 336.06737,386.82843 329.05862,381.30718 322.68487,375.19968 C 323.80612,373.86843 325.55362,372.99343 327.05362,372.99343 C 332.80737,372.99343 338.15487,380.16968 346.31987,382.56093 L 346.32612,373.29218 C 346.33362,365.07718 351.47487,356.49218 360.49112,356.49218 C 361.41612,356.49218 362.28987,356.57718 363.11487,356.74593 C 358.89362,354.53218 354.08487,353.27968 348.98987,353.27968 C 332.12737,353.27968 318.45612,366.95093 318.45612,383.81843 C 318.45612,393.41218 322.88112,402.02218 329.79862,407.63968"
       style="fill:#005a9a;fill-opacity:1;fill-rule:nonzero;stroke:none"
       id="path159" />
    <path
       d="M 370.68487,362.32218 C 371.77487,364.32343 372.35987,366.69718 372.35987,369.22218 C 372.35987,378.79968 365.47112,388.22968 355.73862,389.77218 L 355.73612,409.99343 L 359.26862,409.99343 C 364.59237,409.99343 366.51862,408.94218 368.22487,407.55343 C 375.12237,401.94968 379.52737,393.39593 379.52737,383.81843 C 379.52737,375.43343 376.15112,367.84093 370.68487,362.32218"
       style="fill:#005a9a;fill-opacity:1;fill-rule:nonzero;stroke:none"
       id="path161" />
    <path
       d="M 317.53737,371.39343 C 319.41362,372.99093 321.99112,373.04343 323.29987,371.51093 C 324.60487,369.98093 324.14487,367.43968 322.27362,365.84593 C 320.39612,364.24718 317.81737,364.19468 316.50612,365.72593 C 315.20237,367.26093 315.66237,369.79718 317.53737,371.39343"
       style="fill:#e5a400;fill-opacity:1;fill-rule:nonzero;stroke:none"
       id="path163" />
    <path
       d="M 163.36362,435.27593 C 163.55362,427.70468 163.52612,421.37843 163.36362,413.91718 C 164.20237,413.99718 165.03987,413.99718 165.87862,413.91718 C 165.68987,421.37843 165.68987,427.70468 165.87862,435.27593 C 165.03987,435.19468 164.20237,435.19468 163.36362,435.27593"
       style="fill:#005a9a;fill-opacity:1;fill-rule:nonzero;stroke:none"
       id="path165" />
    <path
       d="M 165.65612,435.02343 C 165.50112,427.63218 165.50112,421.45468 165.65612,414.16843 C 164.96612,414.24718 164.27612,414.24718 163.58612,414.16843 C 163.71987,421.45468 163.74112,427.63218 163.58612,435.02343 C 164.27612,434.94468 164.96612,434.94468 165.65612,435.02343 z"
       style="fill:none;stroke:#005a9a;stroke-width:1.13;stroke-linecap:butt;stroke-linejoin:miter;stroke-miterlimit:4;stroke-dasharray:none;stroke-opacity:1"
       id="path167" />
    <path
       d="M 180.74862,435.27593 C 180.77487,432.67968 180.93737,425.46093 180.80237,423.75718 C 180.69362,422.10843 179.66737,420.78343 177.74737,420.75718 C 174.88112,420.70218 172.66362,420.81093 172.66362,420.81093 C 172.50237,425.05593 172.55612,431.03093 172.66362,435.27593 C 171.85362,435.19468 171.14987,435.19468 170.33862,435.27593 L 170.33862,420.48593 C 170.33862,419.40468 171.20487,418.53968 172.28612,418.53968 L 177.93612,418.53968 C 180.77487,418.53968 183.10112,420.81093 183.10112,423.67718 L 183.10112,435.27593 C 182.26237,435.19468 181.58612,435.19468 180.74862,435.27593"
       style="fill:#005a9a;fill-opacity:1;fill-rule:nonzero;stroke:none"
       id="path169" />
    <path
       d="M 182.88237,435.03343 L 182.88237,423.75218 C 182.88237,420.96593 180.63737,418.75718 177.89487,418.75718 L 172.43737,418.75718 C 171.39237,418.75718 170.55737,419.59843 170.55737,420.64968 L 170.55737,435.03343 C 171.33987,434.95468 172.01987,434.95468 172.80237,435.03343 C 172.69862,430.90593 172.64612,425.09343 172.80237,420.96593 C 172.80237,420.96593 174.94362,420.86093 177.71237,420.91343 C 179.56612,420.93968 180.55862,422.22843 180.66237,423.83218 C 180.79362,425.48968 180.63737,432.50843 180.60987,435.03343 C 181.41987,434.95468 182.07362,434.95468 182.88237,435.03343 z"
       style="fill:none;stroke:#005a9a;stroke-width:1.13;stroke-linecap:butt;stroke-linejoin:miter;stroke-miterlimit:4;stroke-dasharray:none;stroke-opacity:1"
       id="path171" />
    <path
       d="M 193.15487,435.27593 L 186.85487,435.27593 C 186.96237,434.54593 186.96237,433.86968 186.85487,433.11218 C 188.93612,433.35593 192.23487,433.19343 192.69487,433.16718 C 194.01987,433.13968 195.04737,432.08468 195.04737,430.81468 C 195.04737,429.89593 194.47862,429.08343 193.61362,428.75968 L 189.17987,427.05593 C 187.61112,426.46093 186.50362,424.81218 186.50362,423.02843 C 186.50362,420.59468 188.44987,418.70218 190.85612,418.70218 L 197.18237,418.70218 C 197.07487,419.43218 197.07487,420.10843 197.18237,420.86468 C 195.07362,420.62093 191.82987,420.81093 191.34237,420.81093 C 190.01862,420.78343 188.90987,421.78468 188.90987,423.05468 C 188.90987,423.97343 189.47737,424.92093 190.34237,425.24468 L 194.74987,426.92093 C 196.31737,427.51593 197.53362,429.16593 197.53362,430.94968 C 197.53362,433.40968 195.58737,435.27593 193.15487,435.27593"
       style="fill:#005a9a;fill-opacity:1;fill-rule:nonzero;stroke:none"
       id="path173" />
    <path
       d="M 197.31612,430.84468 C 197.31612,429.10718 196.14737,427.50218 194.64112,426.92218 L 190.40862,425.29093 C 189.57862,424.97468 189.03237,424.05343 189.03237,423.15718 C 189.03237,421.92093 190.09612,420.94718 191.36987,420.97218 C 191.83612,420.97218 194.95362,420.78968 196.97862,421.02593 C 196.87487,420.28843 196.87487,419.62968 196.97862,418.91968 L 190.90237,418.91968 C 188.59112,418.91968 186.72112,420.76218 186.72112,423.13218 C 186.72112,424.86843 187.78612,426.47468 189.29237,427.05343 L 193.55112,428.71343 C 194.38112,429.02843 194.92737,429.81843 194.92737,430.71343 C 194.92737,431.95093 193.94112,432.97718 192.66862,433.00343 C 192.22737,433.02968 189.05862,433.18718 187.05987,432.95093 C 187.16237,433.68843 187.16237,434.34593 187.05987,435.05718 L 193.10987,435.05718 C 195.44612,435.05718 197.31612,433.24093 197.31612,430.84468 z"
       style="fill:none;stroke:#005a9a;stroke-width:1.13;stroke-linecap:butt;stroke-linejoin:miter;stroke-miterlimit:4;stroke-dasharray:none;stroke-opacity:1"
       id="path175" />
    <path
       d="M 206.21362,435.27593 C 203.18487,435.27593 201.45487,433.00343 201.45487,430.19218 L 201.45487,413.91718 C 202.26612,413.99718 202.99612,413.99718 203.83362,413.91718 C 203.77987,416.53843 203.77987,418.05343 203.75237,418.70218 L 207.86237,418.70218 C 207.75487,419.43218 207.75487,420.13468 207.86237,420.86468 C 206.23987,420.78343 205.18612,420.78343 203.75237,420.86468 C 203.75237,424.94718 203.69862,429.62468 203.77987,430.11093 C 203.80737,430.24593 203.88862,433.11218 206.40237,433.13968 C 206.91612,433.13968 207.51112,433.13968 207.86237,433.11218 C 207.80862,433.84218 207.75487,434.51843 207.86237,435.27593 L 206.21362,435.27593 z"
       style="fill:#005a9a;fill-opacity:1;fill-rule:nonzero;stroke:none"
       id="path177" />
    <path
       d="M 211.86362,415.80968 C 211.91737,415.21468 211.91737,414.51093 211.86362,413.91718 L 214.21612,413.91718 C 214.16112,414.51093 214.16112,415.21468 214.21612,415.80968 L 211.86362,415.80968 z M 211.86362,435.27593 C 211.97112,430.00343 211.97112,423.40718 211.86362,418.70218 C 212.72862,418.78343 213.37737,418.78343 214.21612,418.70218 C 214.13487,423.40718 214.10737,429.97593 214.21612,435.27593 C 213.35112,435.19468 212.72862,435.19468 211.86362,435.27593"
       style="fill:#005a9a;fill-opacity:1;fill-rule:nonzero;stroke:none"
       id="path179" />
    <path
       d="M 223.48862,435.27593 C 220.46112,435.27593 218.73112,433.00343 218.73112,430.19218 L 218.73112,413.91718 C 219.54237,413.99718 220.27237,413.99718 221.10987,413.91718 C 221.05612,416.53843 221.05612,418.05343 221.02862,418.70218 L 225.13862,418.70218 C 225.02987,419.43218 225.02987,420.13468 225.13862,420.86468 C 223.51612,420.78343 222.46237,420.78343 221.02862,420.86468 C 221.02862,424.94718 220.97487,429.62468 221.05612,430.11093 C 221.08237,430.24593 221.16362,433.11218 223.67862,433.13968 C 224.19237,433.13968 224.78737,433.13968 225.13862,433.11218 C 225.08487,433.84218 225.02987,434.51843 225.13862,435.27593 L 223.48862,435.27593 z"
       style="fill:#005a9a;fill-opacity:1;fill-rule:nonzero;stroke:none"
       id="path181" />
    <path
       d="M 239.38612,435.27593 L 235.08737,435.27593 C 231.51862,435.27593 228.59862,432.35468 228.59862,428.75968 L 228.59862,418.70218 C 229.43612,418.78343 230.11237,418.78343 230.95112,418.70218 C 230.86987,419.72968 230.86987,427.16468 230.92362,428.89468 C 231.03237,431.46343 232.70862,433.13968 235.24987,433.19343 C 235.97987,433.19343 237.24987,433.27468 238.95362,433.13968 C 239.16987,428.67843 239.03487,422.32468 238.95362,418.70218 C 239.79112,418.78343 240.46737,418.78343 241.30612,418.70218 L 241.30612,433.32843 C 241.30612,434.41093 240.46737,435.27593 239.38612,435.27593"
       style="fill:#005a9a;fill-opacity:1;fill-rule:nonzero;stroke:none"
       id="path183" />
    <path
       d="M 250.71487,435.27593 C 247.68612,435.27593 245.95612,433.00343 245.95612,430.19218 L 245.95612,413.91718 C 246.76737,413.99718 247.49737,413.99718 248.33487,413.91718 C 248.28112,416.53843 248.28112,418.05343 248.25362,418.70218 L 252.36362,418.70218 C 252.25612,419.43218 252.25612,420.13468 252.36362,420.86468 C 250.74112,420.78343 249.68737,420.78343 248.25362,420.86468 C 248.25362,424.94718 248.19987,429.62468 248.28112,430.11093 C 248.30862,430.24593 248.38987,433.11218 250.90362,433.13968 C 251.41737,433.13968 252.01237,433.13968 252.36362,433.11218 C 252.30987,433.84218 252.25612,434.51843 252.36362,435.27593 L 250.71487,435.27593 z"
       style="fill:#005a9a;fill-opacity:1;fill-rule:nonzero;stroke:none"
       id="path185" />
    <path
       d="M 207.58737,435.03468 C 207.48737,434.29593 207.53737,433.63593 207.58737,432.92343 C 207.26362,432.94968 206.71737,432.94968 206.24487,432.94968 C 203.93237,432.92343 203.85862,430.12593 203.83362,429.99343 C 203.75862,429.51843 203.80862,424.95343 203.80862,420.96968 C 205.12612,420.88968 206.09612,420.88968 207.58737,420.96968 C 207.48737,420.25718 207.48737,419.57093 207.58737,418.85843 L 203.80862,418.85843 C 203.83362,418.22468 203.83362,416.74593 203.88362,414.18593 C 203.11237,414.26593 202.44112,414.26593 201.69612,414.18593 L 201.69612,430.07343 C 201.69612,432.81718 203.28612,435.03468 206.07112,435.03468 L 207.58737,435.03468 z"
       style="fill:none;stroke:#005a9a;stroke-width:1.25;stroke-linecap:butt;stroke-linejoin:miter;stroke-miterlimit:4;stroke-dasharray:none;stroke-opacity:1"
       id="path187" />
    <path
       d="M 214.41987,435.03593 C 214.31237,429.85593 214.34112,423.43343 214.41987,418.83468 C 213.59237,418.91468 212.95112,418.91468 212.09612,418.83468 C 212.20362,423.43343 212.20362,429.88218 212.09612,435.03593 C 212.95112,434.95593 213.56487,434.95593 214.41987,435.03593 z M 214.41987,416.00593 C 214.36737,415.42593 214.36737,414.73843 214.41987,414.15593 L 212.09612,414.15593 C 212.14987,414.73843 212.14987,415.42593 212.09612,416.00593 L 214.41987,416.00593 z M 225.20737,435.03593 C 225.09987,434.29593 225.15362,433.63593 225.20737,432.92093 C 224.85987,432.94843 224.27237,432.94843 223.76487,432.94843 C 221.28112,432.92093 221.20112,430.11968 221.17487,429.98718 C 221.09487,429.51218 221.14737,424.93968 221.14737,420.94843 C 222.56362,420.86968 223.60487,420.86968 225.20737,420.94843 C 225.09987,420.23593 225.09987,419.54843 225.20737,418.83468 L 221.14737,418.83468 C 221.17487,418.20093 221.17487,416.71968 221.22737,414.15593 C 220.39987,414.23593 219.67862,414.23593 218.87862,414.15593 L 218.87862,430.06718 C 218.87862,432.81593 220.58737,435.03593 223.57862,435.03593 L 225.20737,435.03593 z M 241.17237,433.13343 L 241.17237,418.83468 C 240.34487,418.91343 239.67612,418.91343 238.84862,418.83468 C 238.92862,422.37593 239.06237,428.58718 238.84862,432.94843 C 237.16612,433.08093 235.91112,433.00093 235.18987,433.00093 C 232.67987,432.94843 231.02362,431.30843 230.91612,428.79843 C 230.86362,427.10718 230.86362,419.83843 230.94362,418.83468 C 230.11612,418.91343 229.44862,418.91343 228.62112,418.83468 L 228.62112,428.66718 C 228.62112,432.18093 231.50487,435.03593 235.02987,435.03593 L 239.27612,435.03593 C 240.34487,435.03593 241.17237,434.18968 241.17237,433.13343 z M 252.09237,435.03593 C 251.98612,434.29593 252.03987,433.63593 252.09237,432.92093 C 251.74612,432.94843 251.15862,432.94843 250.65112,432.94843 C 248.16737,432.92093 248.08737,430.11968 248.06112,429.98718 C 247.97987,429.51218 248.03362,424.93968 248.03362,420.94843 C 249.44862,420.86968 250.49112,420.86968 252.09237,420.94843 C 251.98612,420.23593 251.98612,419.54843 252.09237,418.83468 L 248.03362,418.83468 C 248.06112,418.20093 248.06112,416.71968 248.11362,414.15593 C 247.28612,414.23593 246.56487,414.23593 245.76362,414.15593 L 245.76362,430.06718 C 245.76362,432.81593 247.47237,435.03593 250.46487,435.03593 L 252.09237,435.03593 z"
       style="fill:none;stroke:#005a9a;stroke-width:1.13;stroke-linecap:butt;stroke-linejoin:miter;stroke-miterlimit:4;stroke-dasharray:none;stroke-opacity:1"
       id="path189" />
    <path
       d="M 272.86862,425.19093 L 267.86737,425.19093 C 267.83987,429.46218 267.89362,433.81593 267.97487,435.27593 C 267.21862,435.22093 266.19112,435.22093 265.46112,435.27593 L 265.46112,415.83593 C 265.46112,414.61968 266.40737,413.64593 267.62362,413.64593 L 272.81487,413.64593 C 276.22112,413.64593 278.76237,416.29593 278.76237,419.48593 C 278.76237,422.67593 276.27487,425.19093 272.86862,425.19093 M 272.70612,415.75468 C 272.02987,415.75468 269.51612,415.72843 268.00237,415.86343 C 267.92112,416.94468 267.86737,419.81093 267.86737,423.02843 C 270.05737,423.08218 271.81487,423.08218 272.70612,423.05468 C 274.78862,422.94718 276.22112,421.45968 276.22112,419.43218 C 276.22112,417.40343 274.78862,415.78218 272.70612,415.75468"
       style="fill:#005a9a;fill-opacity:1;fill-rule:nonzero;stroke:none"
       id="path191" />
    <path
       d="M 276.08737,419.52843 C 276.08737,421.51343 274.70112,422.96968 272.68737,423.07593 C 271.82362,423.10093 270.12362,423.10093 268.00612,423.04968 C 268.00612,419.89843 268.05862,417.09218 268.13737,416.03468 C 269.60112,415.90093 272.03362,415.92843 272.68737,415.92843 C 274.70112,415.95468 276.08737,417.54343 276.08737,419.52843 z M 278.54487,419.58093 C 278.54487,416.45843 276.08737,413.86343 272.79237,413.86343 L 267.77112,413.86343 C 266.59362,413.86343 265.67862,414.81718 265.67862,416.00843 L 265.67862,435.03968 C 266.38487,434.98718 267.37862,434.98718 268.11112,435.03968 C 268.03237,433.61093 267.97987,429.34968 268.00612,425.16593 L 272.84362,425.16593 C 276.13862,425.16593 278.54487,422.70468 278.54487,419.58093 z"
       style="fill:none;stroke:#005a9a;stroke-width:1.13;stroke-linecap:butt;stroke-linejoin:miter;stroke-miterlimit:4;stroke-dasharray:none;stroke-opacity:1"
       id="path193" />
    <path
       d="M 291.09112,435.27593 C 291.09112,434.78843 291.11862,433.65343 291.11862,433.08593 C 290.28112,434.46468 288.60362,435.38343 286.95487,435.38343 C 283.54862,435.38343 280.70987,432.38218 280.70987,428.94843 L 280.70987,423.70343 C 280.70987,420.83718 283.11612,418.53968 286.00862,418.53968 L 291.52487,418.53968 C 292.55112,418.53968 293.38987,419.35093 293.38987,420.37843 L 293.38987,435.27593 C 292.55112,435.19468 291.90237,435.19468 291.09112,435.27593 M 290.87612,420.75718 C 290.71237,420.75718 287.87487,420.67593 285.68487,420.75718 C 285.08987,420.78343 282.97987,421.59468 282.97987,424.02843 C 282.97987,425.29968 282.95362,427.83968 282.97987,429.11093 C 283.06112,431.27468 284.68362,433.16718 286.87362,433.16718 C 289.03737,433.16718 290.90237,431.35468 290.92987,429.19218 C 290.98362,426.16468 290.95612,423.24343 290.87612,420.75718"
       style="fill:#005a9a;fill-opacity:1;fill-rule:nonzero;stroke:none"
       id="path195" />
    <path
       d="M 290.79612,429.13468 C 290.76987,431.24093 288.96862,433.00593 286.87987,433.00593 C 284.76487,433.00593 283.19862,431.16218 283.11987,429.05468 C 283.09362,427.81718 283.11987,425.34218 283.11987,424.10343 C 283.11987,421.73343 285.15737,420.94343 285.73112,420.91718 C 287.84612,420.83843 290.58737,420.91718 290.74362,420.91718 C 290.82237,423.33968 290.84862,426.18468 290.79612,429.13468 z M 293.17237,435.06093 L 293.17237,420.54843 C 293.17237,419.54718 292.36237,418.75718 291.37112,418.75718 L 286.04487,418.75718 C 283.25112,418.75718 280.92737,420.99593 280.92737,423.78843 L 280.92737,428.89718 C 280.92737,432.24218 283.66737,435.16593 286.95862,435.16593 C 288.55112,435.16593 290.16987,434.26968 290.97862,432.92718 C 290.97862,433.47968 290.95237,434.58593 290.95237,435.06093 C 291.73612,434.98218 292.36237,434.98218 293.17237,435.06093 z"
       style="fill:none;stroke:#005a9a;stroke-width:1.13;stroke-linecap:butt;stroke-linejoin:miter;stroke-miterlimit:4;stroke-dasharray:none;stroke-opacity:1"
       id="path197" />
    <path
       d="M 303.92987,435.27593 L 297.63112,435.27593 C 297.73987,434.54593 297.73987,433.86968 297.63112,433.11218 C 299.71362,433.35593 303.01112,433.19343 303.47112,433.16718 C 304.79612,433.13968 305.82362,432.08468 305.82362,430.81468 C 305.82362,429.89593 305.25487,429.08343 304.38987,428.75968 L 299.95612,427.05593 C 298.38862,426.46093 297.27987,424.81218 297.27987,423.02843 C 297.27987,420.59468 299.22612,418.70218 301.63237,418.70218 L 307.95987,418.70218 C 307.85112,419.43218 307.85112,420.10843 307.95987,420.86468 C 305.84987,420.62093 302.60612,420.81093 302.11987,420.81093 C 300.79362,420.78343 299.68612,421.78468 299.68612,423.05468 C 299.68612,423.97343 300.25362,424.92093 301.11862,425.24468 L 305.52612,426.92093 C 307.09362,427.51593 308.31112,429.16593 308.31112,430.94968 C 308.31112,433.40968 306.36362,435.27593 303.92987,435.27593"
       style="fill:#005a9a;fill-opacity:1;fill-rule:nonzero;stroke:none"
       id="path199" />
    <path
       d="M 308.09237,430.84468 C 308.09237,429.10718 306.92362,427.50218 305.41862,426.92218 L 301.18487,425.29093 C 300.35487,424.97468 299.80862,424.05343 299.80862,423.15718 C 299.80862,421.92093 300.87362,420.94718 302.14612,420.97218 C 302.61362,420.97218 305.72987,420.78968 307.75612,421.02593 C 307.65112,420.28843 307.65112,419.62968 307.75612,418.91968 L 301.67862,418.91968 C 299.36737,418.91968 297.49737,420.76218 297.49737,423.13218 C 297.49737,424.86843 298.56237,426.47468 300.06862,427.05343 L 304.32612,428.71343 C 305.15862,429.02843 305.70362,429.81843 305.70362,430.71343 C 305.70362,431.95093 304.71737,432.97718 303.44487,433.00343 C 303.00362,433.02968 299.83487,433.18718 297.83487,432.95093 C 297.93862,433.68843 297.93862,434.34593 297.83487,435.05718 L 303.88612,435.05718 C 306.22362,435.05718 308.09237,433.24093 308.09237,430.84468 z"
       style="fill:none;stroke:#005a9a;stroke-width:1.13;stroke-linecap:butt;stroke-linejoin:miter;stroke-miterlimit:4;stroke-dasharray:none;stroke-opacity:1"
       id="path201" />
    <path
       d="M 316.98987,435.27593 C 313.96112,435.27593 312.23112,433.00343 312.23112,430.19218 L 312.23112,413.91718 C 313.04237,413.99718 313.77237,413.99718 314.60987,413.91718 C 314.55612,416.53843 314.55612,418.05343 314.52987,418.70218 L 318.63862,418.70218 C 318.53112,419.43218 318.53112,420.13468 318.63862,420.86468 C 317.01737,420.78343 315.96237,420.78343 314.52987,420.86468 C 314.52987,424.94718 314.47487,429.62468 314.55612,430.11093 C 314.58362,430.24593 314.66487,433.11218 317.17862,433.13968 C 317.69237,433.13968 318.28737,433.13968 318.63862,433.11218 C 318.58487,433.84218 318.53112,434.51843 318.63862,435.27593 L 316.98987,435.27593 z"
       style="fill:#005a9a;fill-opacity:1;fill-rule:nonzero;stroke:none"
       id="path203" />
    <path
       d="M 323.61362,427.73218 C 323.61362,428.16468 323.64112,428.57093 323.64112,428.86718 C 323.72112,431.40968 325.39862,433.08593 327.91237,433.22093 C 328.72362,433.24843 331.12987,433.30218 333.18487,433.13968 C 333.10362,433.84218 333.10362,434.54593 333.21112,435.27593 L 327.85862,435.27593 C 324.26237,435.27593 321.39737,432.38218 321.39737,428.81343 L 321.39737,423.62218 C 321.39737,420.72968 323.72112,418.40468 326.61487,418.40468 L 328.58862,418.40468 C 331.48112,418.40468 333.80612,420.78343 333.80612,423.67718 L 333.80612,427.73218 L 323.61362,427.73218 z M 331.50862,423.59593 C 331.34612,421.97343 330.34612,420.56718 328.42612,420.54093 L 326.74987,420.51343 C 324.82987,420.48593 323.82987,421.97343 323.66737,423.56843 C 323.61362,424.05593 323.61362,424.81218 323.61362,425.65093 C 325.50612,425.73093 329.66987,425.73093 331.53487,425.62343 C 331.58987,424.75843 331.56237,424.29843 331.50862,423.59593"
       style="fill:#005a9a;fill-opacity:1;fill-rule:nonzero;stroke:none"
       id="path205" />
    <path
       d="M 347.94612,435.27593 L 343.64737,435.27593 C 340.07862,435.27593 337.15862,432.35468 337.15862,428.75968 L 337.15862,418.70218 C 337.99737,418.78343 338.67237,418.78343 339.51112,418.70218 C 339.42987,419.72968 339.42987,427.16468 339.48362,428.89468 C 339.59112,431.46343 341.26862,433.13968 343.80987,433.19343 C 344.53987,433.19343 345.80987,433.27468 347.51362,433.13968 C 347.72987,428.67843 347.59487,422.32468 347.51362,418.70218 C 348.35237,418.78343 349.02737,418.78343 349.86612,418.70218 L 349.86612,433.32843 C 349.86612,434.41093 349.02737,435.27593 347.94612,435.27593"
       style="fill:#005a9a;fill-opacity:1;fill-rule:nonzero;stroke:none"
       id="path207" />
    <path
       d="M 359.81487,420.81093 C 357.75987,420.83718 356.65237,422.40593 356.67862,423.97343 C 356.67862,423.97343 356.54362,428.24593 356.78737,435.27593 C 355.94862,435.19468 355.27237,435.19468 354.43487,435.27593 L 354.43487,423.78468 C 354.43487,420.94593 356.73362,418.70218 359.54487,418.70218 L 362.08612,418.70218 C 362.00487,419.43218 362.00487,420.13468 362.08612,420.86468 C 360.59987,420.81093 361.70737,420.78343 359.81487,420.81093"
       style="fill:#005a9a;fill-opacity:1;fill-rule:nonzero;stroke:none"
       id="path209" />
    <path
       d="M 318.79737,435.03593 C 318.68987,434.29593 318.74362,433.63468 318.79737,432.92093 C 318.44862,432.94718 317.85987,432.94718 317.35112,432.94718 C 314.85987,432.92093 314.77862,430.11843 314.75237,429.98718 C 314.67237,429.51218 314.72612,424.93968 314.72612,420.94843 C 316.14487,420.86968 317.18987,420.86968 318.79737,420.94843 C 318.68987,420.23468 318.68987,419.54843 318.79737,418.83468 L 314.72612,418.83468 C 314.75237,418.20093 314.75237,416.71968 314.80612,414.15593 C 313.97612,414.23593 313.25237,414.23593 312.44987,414.15593 L 312.44987,430.06718 C 312.44987,432.81593 314.16362,435.03593 317.16362,435.03593 L 318.79737,435.03593 z M 331.57237,425.59968 C 329.72487,425.70593 325.59862,425.70593 323.72362,425.62718 C 323.72362,424.80718 323.72362,424.06718 323.77737,423.59218 C 323.93862,422.03218 324.92987,420.57843 326.83112,420.60468 L 328.49237,420.63093 C 330.39362,420.65718 331.38487,422.03218 331.54487,423.61843 C 331.59862,424.30593 331.62612,424.75468 331.57237,425.59968 z M 333.82237,427.66218 L 333.82237,423.69718 C 333.82237,420.86968 331.51862,418.54343 328.65237,418.54343 L 326.69737,418.54343 C 323.83112,418.54343 321.52862,420.81593 321.52862,423.64468 L 321.52862,428.71968 C 321.52862,432.20718 324.36737,435.03593 327.92987,435.03593 L 333.23362,435.03593 C 333.12612,434.32218 333.12612,433.63468 333.20612,432.94718 C 331.17112,433.10593 328.78737,433.05343 327.98362,433.02718 C 325.49237,432.89468 323.83112,431.25593 323.75112,428.77093 C 323.75112,428.48093 323.72362,428.08468 323.72362,427.66218 L 333.82237,427.66218 z M 349.73362,433.13343 L 349.73362,418.83343 C 348.90362,418.91343 348.23362,418.91343 347.40237,418.83343 C 347.48362,422.37593 347.61737,428.58593 347.40237,432.94718 C 345.71612,433.07968 344.45612,432.99968 343.73362,432.99968 C 341.21612,432.94718 339.55487,431.30843 339.44737,428.79843 C 339.39362,427.10718 339.39362,419.83843 339.47487,418.83343 C 338.64487,418.91343 337.97487,418.91343 337.14487,418.83343 L 337.14487,428.66593 C 337.14487,432.18093 340.03737,435.03468 343.57362,435.03468 L 347.83112,435.03468 C 348.90362,435.03468 349.73362,434.18968 349.73362,433.13343 z M 361.86362,420.94843 C 361.78362,420.23468 361.78362,419.54843 361.86362,418.83468 L 359.34612,418.83468 C 356.55987,418.83468 354.28362,421.02843 354.28362,423.80218 L 354.28362,435.03468 C 355.11362,434.95718 355.78237,434.95718 356.61362,435.03468 C 356.37237,428.16468 356.50612,423.98843 356.50612,423.98843 C 356.47987,422.45468 357.57737,420.92218 359.61362,420.89593 C 361.48862,420.86968 360.39112,420.89593 361.86362,420.94843 z"
       style="fill:none;stroke:#005a9a;stroke-width:1.13;stroke-linecap:butt;stroke-linejoin:miter;stroke-miterlimit:4;stroke-dasharray:none;stroke-opacity:1"
       id="path211" />
  </g>
</svg>
