<svg id="all-layers" xmlns="http://www.w3.org/2000/svg" viewBox="0 0 175.86 175.86">
  <defs>
    <style>
      .cls-1 {
        fill: #e0e1e2;
      }
      .cls-2 {
        fill: #303133;
      }
      .cls-3,
      .cls-4,
      .cls-5 {
        fill: #e2e2e2;
      }
      .cls-3 {
        opacity: 0.88;
      }
      .cls-4 {
        opacity: 0.77;
      }
      .cls-6,
      .cls-7 {
        fill: none;
        stroke-width: 0.5px;
      }
      .cls-6 {
        stroke: #68c6b4;
        stroke-miterlimit: 11;
      }
      .cls-7 {
        stroke: #64c5b3;
        stroke-miterlimit: 10;
      }
      .cls-8 {
        fill: #68c6b4;
      }
      .cls-9 {
        fill: #69c6b5;
      }
      .cls-10 {
        fill: #64c5b3;
      }
      .cls-11 {
        fill: #fff;
      }
      .cls-12 {
        fill: #cee9dd;
      }
    </style>
  </defs>
  <title>ImJoy.io-icon-circle</title>
  <circle class="cls-1" cx="87.93" cy="87.93" r="87.93"/><circle class="cls-2" cx="87.95" cy="87.9" r="83.37"/>
  <g>
    <animateTransform attributeName="transform"
                          attributeType="XML"
                          type="rotate"
                          from="0 87.48 87.87"
                          to="360 87.48 87.87"
                          dur="0.8s"
                          repeatCount="1"/>
  <g id="sand-clock">
    <g id="glass5"><polygon class="cls-3" points="119.64 143.97 119.64 143.97 53.33 144.79 119.64 143.97"/><polygon class="cls-4" points="119.64 143.97 119.64 143.97 53.33 144.79 119.64 143.97"/><path class="cls-3" d="M276.34,485.16l-.51,14.55c.81-4.88,1.61-10.47,2.34-15.77A9,9,0,0,0,276.34,485.16Z" transform="translate(-222.5 -354.92)"/><path
      class="cls-4"
      d="M340.86,490.81a46,46,0,0,1-11.75,2.9c-6.49.68-20.68-1.8-27.63-7.39-14.65-11.77-23.52-2.19-23.57-1.77-.66,4.71-.58,9.48-1.3,13.91a1.07,1.07,0,0,0,1.07,1.23l64-.79a1.08,1.08,0,0,0,1.06-1.07l-.36-6.46A1.07,1.07,0,0,0,340.86,490.81Z"
      transform="translate(-222.5 -354.92)"/></g><path
      id="glass4"
      class="cls-5"
      d="M277.4,451.79c-1.55,3.53-3.08,7.07-4.68,10.57a8,8,0,0,0-.5,3.14c-.19,4.66-.65,9.29-1,13.93,0,.6,0,1.22-.73,1.46-.45.16-1,.45-1.38.13s-.1-.93.14-1.28a2.46,2.46,0,0,0-.45-3.57,11.64,11.64,0,0,1-2.22-3.78s.1-4.91.3-7.38c.08-.94,1-1.52,1.52-2.23,2.79-3.6,5.62-7.16,8.43-10.74a2.52,2.52,0,0,0,.25-.61Z"
      transform="translate(-222.5 -354.92)"/><polyline class="cls-5" points="50.11 120.33 50.67 120.44 50.15 122.36"/><path
      id="glass3"
      class="cls-5"
      d="M273.14,474.44c2.4-3.47,4.55-7.16,7.27-10.36a73,73,0,0,1,9.84-9.23l.81-.64a4.55,4.55,0,0,1,.62,1.07c.07.18.47.25.47.25s-.28.51.14.77c.26.16,1.22.9,1.7.87-6.94,6-13.69,11.85-20.43,17.7Z"
      transform="translate(-222.5 -354.92)"/><path
      id="glass2"
      class="cls-5"
      d="M273.71,439.07c2.75,1.14,5.55,2.17,8.22,3.48,2.46,1.2,5,2.28,7.5,3.28,1.14.44,1.41,1,.82,2.06a17.94,17.94,0,0,1-1.48,2.85l-.89,1.08a8,8,0,0,1-1.25-.86c-.6-.59-1.42-1-1.62-1.92-.15-.67-.78-.84-1.31-1.08a30.81,30.81,0,0,0-3.42-1.42c-3.72-1.11-4.58-4.75-6.83-7.16Z"
      transform="translate(-222.5 -354.92)"/><path id="glass-1" class="cls-5" d="M281.69,439.55a16.45,16.45,0,0,1-2-4c-1.4-3-4.11-8.9-4.11-8.9l-.66-2,2.24,1.08,1.19.37.15-2.48a74.19,74.19,0,0,1,4,8.68C283.15,434.52,282.47,436.93,281.69,439.55Z" transform="translate(-222.5 -354.92)"/><path
      id="glass-1-2"
      data-name="glass-1"
      class="cls-5"
      d="M268.49,448.07c-.5-.18-.15.34-.48.12-.78-.51-.59-.84-.59-.84l-.93-.48.19-.52-.29-.24-.29-.61a20.24,20.24,0,0,1,2.27,1.54C268.85,447.48,268.36,447.33,268.49,448.07Z"
      transform="translate(-222.5 -354.92)"/><path id="glass-1-3" data-name="glass-1" class="cls-5" d="M288.8,454c-.85.37-.46.7-1.12.81a10.49,10.49,0,0,1-2.2.25l-1.15-.11.91-.55.7-1,1.07-.51h0C288.11,452.85,287.9,453.17,288.8,454Z" transform="translate(-222.5 -354.92)"/><path id="glass-1-4" data-name="glass-1" class="cls-5" d="M265.33,452.87a21.19,21.19,0,0,1-3.89.59c-1.7.3-2.77.44-2.77.44l.58-.32-1-.57.57-.63.32-.26s-.56-.28.84-.3C261.14,451.8,264.37,452,265.33,452.87Z" transform="translate(-222.5 -354.92)"/><path
      id="outer"
      class="cls-5"
      d="M275.73,473.76a10.42,10.42,0,0,1,1.39,2.65s1.14,1.56,1.51,2.25c.49.93-.54,1.51-.86,2.26-.2.47-.57,1.84-.57,1.84a8.6,8.6,0,0,1,1.35-.42c.37,0,1.14,0,1.14,0s-.11.7-.22,1.28c-.43,2.26-.77,4.54-1.14,6.82-.05.35-1.12,6.59.16,6.9s60.45.18,61.68-.49.13-6.58.07-6.94c-1.22-7.41-2.46-14.81-3.63-22.23a7.29,7.29,0,0,0-2-3.86c-6.23-7-13.14-13.22-19.55-20-1.59-1.67-1.62-2,0-3.65,4.54-4.63,9.12-9.21,13.63-13.86,2.31-2.39,4.5-4.89,6.76-7.33,1.3-1.4,1.21-3.28,1.51-5,1.29-7.56,2.5-15.13,3.73-22.7.17-1.06.26-2.14.49-3.18.35-1.52-.33-1.9-1.63-1.9H279.18c-1.34,0-1.92.5-1.67,1.95q2.42,14.36,4.78,28.72a3.21,3.21,0,0,0,1.06,2.08c1,.87.86,2.11,1,3.26,0,.15-.05.4-.14.43-.67.26-1.55-.13-2,.76l-.92-.83c-.08-.07-.14-.16-.22-.22-3.64-2.61-4.56-6.54-5.18-10.8-1.18-8-2.68-15.87-4-23.81-.22-1.32-1.2-1.38-2.09-1.46a7.07,7.07,0,0,1-3.52-1.09c-1.93-1.29-1.92-3.19,0-4.47a8.49,8.49,0,0,1,4.74-1.28h76.8a8.34,8.34,0,0,1,4.74,1.32c1.93,1.29,1.89,3.2-.08,4.46a7.06,7.06,0,0,1-3.54,1.05c-1.4.08-2.06.82-2.3,2.29-1.16,7.09-2.42,14.16-3.63,21.24-.36,2.12-.7,4.23-1,6.36a6.72,6.72,0,0,1-1.82,3.64c-6.12,6.79-12.51,13.29-18.82,19.88-.33.34-.66.68-1,1a1.67,1.67,0,0,0,.07,2.63q4.21,4.29,8.34,8.67c4,4.21,7.93,8.47,11.92,12.67a4.94,4.94,0,0,1,1.22,2.72q1.88,10.94,3.74,21.88c.35,2.06.71,4.12,1,6.19.18,1.27.66,2,2,2.13a10.89,10.89,0,0,1,3.13.86A2.75,2.75,0,0,1,354,501a2.92,2.92,0,0,1-2,2.61,12.11,12.11,0,0,1-5.31.94q-33.9,0-67.8,0c-3.41,0-6.83.31-10.22-.32a5.59,5.59,0,0,1-2.45-.95c-1.91-1.48-1.8-3.4.28-4.6a8.31,8.31,0,0,1,3.55-1.1c1.4-.09,1.77-.77,2-2.09,1.07-6.67,2.24-13.33,3.39-20C275.44,475,275.56,474.54,275.73,473.76Z"
      transform="translate(-222.5 -354.92)"/></g>
  <g id="neural-network">
    <polyline class="cls-6" points="72.53 68.72 74.57 85.43 80.45 95.5"/>
    <line class="cls-7" x1="74.57" y1="85.43" x2="87.42" y2="87.7"/><path
    class="cls-8"
    d="M319,487.75l-16-7.51-.83.68.26-.65-12.71,2.06v-12l.12,0L303,449.7l.19.48,21.67,11.58h0l.24.53Zm-15.47-8,15,7,5.7-23.87Zm-13.2-8.92v10.7l12.35-2,5.63-13.66Zm18.78-5.16-5.4,13.09,19.84-16.1Zm-6.26-14.59-12.11,19,17.7-4.87Zm.69,0L309.1,465l.36-.1,0,.05,14.44-3Z"
    transform="translate(-222.5 -354.92)"/>
    <polygon class="cls-9" points="61.13 138.56 67.27 128.68 67.82 129.02 62.44 137.68 96.18 132.06 110.05 121.92 110.44 122.44 96.44 132.68 61.13 138.56"/><polygon class="cls-10" points="109.96 121.52 102.04 107.35 87.46 88.2 80.69 95.71 80.21 95.28 87.5 87.19 102.58 106.99 110.53 121.2 109.96 121.52"/><path
    class="cls-8"
    d="M300.87,397.65l16,7.51.84-.68-.27.65,12.72-2.06v12l-.12,0-13.18,20.63-.19-.47L295,423.64h0l-.24-.53Zm15.46,8-15-7-5.7,23.87Zm13.2,8.92v-10.7l-12.36,2-5.63,13.66Zm-18.77,5.16,5.39-13.09-19.84,16.1ZM317,434.28l12.11-19-17.7,4.87Zm-.7,0-5.52-13.91-.36.09,0,0-14.45,3Z"
    transform="translate(-222.5 -354.92)"/>
    <polygon class="cls-9" points="113.77 37.01 107.63 46.89 107.08 46.55 112.46 37.89 78.72 43.5 64.85 53.64 64.47 53.12 78.46 42.89 113.77 37.01"/><polygon class="cls-10" points="64.94 54.05 72.86 68.22 87.44 87.36 94.21 79.85 94.69 80.29 87.4 88.38 72.32 68.57 64.37 54.36 64.94 54.05"/><circle class="cls-11" cx="85.92" cy="110.19" r="1.96"/><circle class="cls-11" cx="67.25" cy="116.68" r="3.92"/><circle class="cls-11" cx="80.82" cy="124.61" r="2.41"/><circle class="cls-11" cx="67.74" cy="127.29" r="1.82"/><circle class="cls-11" cx="96.31" cy="132.37" r="2.74"/>
    <circle class="cls-11" cx="102.32" cy="107.19" r="2.42"/><circle class="cls-11" cx="80.45" cy="95.5" r="1.4"/><circle class="cls-11" cx="110.24" cy="122.18" r="1.9"/><circle class="cls-11" cx="61.79" cy="138.12" r="2.28"/><circle class="cls-11" cx="87.48" cy="87.87" r="1.57"/><circle class="cls-12" cx="74.57" cy="85.9" r="1.97"/><circle class="cls-12" cx="88.98" cy="65.37" r="1.96"/><circle class="cls-12" cx="107.65" cy="58.88" r="3.92"/><circle class="cls-12" cx="94.08" cy="50.96" r="2.41"/><circle class="cls-12" cx="107.16" cy="48.27" r="1.82"/><circle class="cls-12" cx="78.59" cy="43.19" r="2.74"/><circle class="cls-12" cx="72.58" cy="68.38" r="2.42"/><circle class="cls-12" cx="94.45" cy="80.07" r="1.4"/><circle class="cls-12" cx="64.66" cy="53.38" r="1.9"/><circle class="cls-12" cx="113.11" cy="37.45" r="2.28"/><circle class="cls-12" cx="87.42" cy="87.7" r="1.57"/>
  </g>
  </g>
</svg>
