<svg xmlns="http://www.w3.org/2000/svg" 
    xmlns:xlink="http://www.w3.org/1999/xlink" width="120" height="12">
    <path d="M2.47 2.63L2.47 1.55L3.53 1.55L3.53 2.63L2.47 2.63ZM2.53 9.95L2.53 4.25L3.47 4.25L3.47 9.95L2.53 9.95ZM6.55 4.25L7.18 4.25L7.32 4.69Q7.83 4.02 8.38 4.02L8.38 4.02Q8.94 4.02 9.25 4.69L9.25 4.69Q9.78 4.02 10.42 4.02L10.42 4.02Q11.45 4.02 11.45 5.46L11.45 5.46L11.45 9.95L10.59 9.95L10.59 5.63Q10.59 4.79 10.17 4.79L10.17 4.79Q9.79 4.79 9.55 5.21L9.55 5.21Q9.42 5.47 9.42 5.78L9.42 5.78L9.42 9.95L8.58 9.95L8.58 5.61Q8.58 4.79 8.14 4.79L8.14 4.79Q7.41 4.79 7.41 5.77L7.41 5.77L7.41 9.95L6.55 9.95L6.55 4.25ZM14.77 2.63L14.77 1.55L15.82 1.55L15.82 2.63L14.77 2.63ZM14.82 10.38L14.82 4.25L15.76 4.25L15.76 10.42Q15.76 11.68 14.53 11.68L14.53 11.68Q14.05 11.68 13.15 11.58L13.15 11.58L13.15 10.69Q13.69 10.82 14.34 10.82L14.34 10.82Q14.82 10.82 14.82 10.38L14.82 10.38ZM21.01 4.02L21.01 4.02Q22.11 4.02 22.74 4.99L22.74 4.99Q23.28 5.80 23.28 7.10L23.28 7.10Q23.28 8.08 22.96 8.82L22.96 8.82Q22.36 10.19 20.99 10.19L20.99 10.19Q19.93 10.19 19.29 9.29L19.29 9.29Q18.72 8.46 18.72 7.10L18.72 7.10Q18.72 5.64 19.38 4.80L19.38 4.80Q20.02 4.02 21.01 4.02ZM20.99 4.86L20.99 4.86Q20.34 4.86 19.98 5.53L19.98 5.53Q19.66 6.12 19.66 7.10L19.66 7.10Q19.66 8.00 19.92 8.57L19.92 8.57Q20.29 9.35 21 9.35L21 9.35Q21.66 9.35 22.02 8.68L22.02 8.68Q22.34 8.09 22.34 7.11L22.34 7.11Q22.34 6.10 22.01 5.52L22.01 5.52Q21.65 4.86 20.99 4.86ZM26.72 9.45L24.71 4.25L25.74 4.25L27.17 8.30L28.43 4.25L29.47 4.25L27.12 10.83Q26.92 11.41 26.45 11.59L26.45 11.59Q26.23 11.68 25.03 11.68L25.03 11.68L25.03 10.81L25.55 10.81Q25.73 10.81 25.81 10.81L25.81 10.81Q26.21 10.81 26.34 10.49L26.34 10.49L26.72 9.45ZM31.10 10.61L31.10 9L32.71 9L32.71 10.61L31.10 10.61ZM38.33 4.25L38.33 2.70L39.25 2.70L39.25 4.25L40.66 4.25L40.66 5.11L39.25 5.11L39.25 8.74Q39.25 9.15 39.70 9.15L39.70 9.15Q40.26 9.15 40.74 9.06L40.74 9.06L40.74 9.96Q40.03 10.05 39.52 10.05L39.52 10.05Q38.33 10.05 38.33 8.87L38.33 8.87L38.33 5.11L37.20 5.11L37.20 4.25L38.33 4.25ZM46.34 8.18L47.28 8.18Q46.76 10.18 45.01 10.18L45.01 10.18Q43.93 10.18 43.29 9.28L43.29 9.28Q42.72 8.46 42.72 7.10L42.72 7.10Q42.72 5.81 43.26 4.98L43.26 4.98Q43.89 4.02 45 4.02L45 4.02Q47.16 4.02 47.30 7.28L47.30 7.28L43.62 7.28Q43.69 9.38 45.02 9.38L45.02 9.38Q46.08 9.38 46.34 8.18L46.34 8.18ZM43.66 6.52L46.34 6.52Q46.15 4.82 45 4.82L45 4.82Q43.89 4.82 43.66 6.52L43.66 6.52ZM49.79 5.91L48.83 5.91Q49.07 4.01 51.01 4.01L51.01 4.01Q52.96 4.01 52.96 6.11L52.96 6.11L52.96 8.97Q52.96 9.31 53.27 9.31L53.27 9.31Q53.37 9.31 53.55 9.27L53.55 9.27L53.55 10.11Q53.31 10.17 52.98 10.17L52.98 10.17Q52.19 10.17 52.08 9.29L52.08 9.29Q51.27 10.17 50.30 10.17L50.30 10.17Q49.66 10.17 49.25 9.84L49.25 9.84Q48.71 9.40 48.71 8.55L48.71 8.55Q48.71 6.58 52.10 6.35L52.10 6.35L52.10 6.11Q52.10 4.82 51.01 4.82L51.01 4.82Q49.88 4.82 49.79 5.91L49.79 5.91ZM52.10 7.89L52.10 7.10Q49.59 7.22 49.59 8.51L49.59 8.51Q49.59 9.37 50.44 9.37L50.44 9.37Q51.02 9.37 51.57 8.92L51.57 8.92Q52.10 8.51 52.10 7.89L52.10 7.89ZM54.55 4.25L55.18 4.25L55.32 4.69Q55.83 4.02 56.38 4.02L56.38 4.02Q56.94 4.02 57.25 4.69L57.25 4.69Q57.78 4.02 58.42 4.02L58.42 4.02Q59.45 4.02 59.45 5.46L59.45 5.46L59.45 9.95L58.59 9.95L58.59 5.63Q58.59 4.79 58.17 4.79L58.17 4.79Q57.79 4.79 57.55 5.21L57.55 5.21Q57.42 5.47 57.42 5.78L57.42 5.78L57.42 9.95L56.58 9.95L56.58 5.61Q56.58 4.79 56.14 4.79L56.14 4.79Q55.41 4.79 55.41 5.77L55.41 5.77L55.41 9.95L54.55 9.95L54.55 4.25ZM63.86 3.90L63.96 3.55L64.42 3.55Q64.22 5.38 64.22 6.87L64.22 6.87Q64.22 7.71 64.48 7.71L64.48 7.71Q64.66 7.71 64.76 7.45L64.76 7.45Q65.05 6.76 65.05 5.41L65.05 5.41Q65.05 4.04 64.62 3.15L64.62 3.15Q64.10 2.04 63.01 2.04L63.01 2.04Q62.09 2.04 61.51 3.06L61.51 3.06Q60.94 4.08 60.94 6.02L60.94 6.02Q60.94 7.92 61.48 8.91L61.48 8.91Q62.03 9.92 63 9.92L63 9.92Q64.23 9.92 64.75 8.76L64.75 8.76L65.39 9.16Q64.58 10.64 62.99 10.64L62.99 10.64Q61.70 10.64 61.00 9.50L61.00 9.50Q60.25 8.29 60.25 6.01L60.25 6.01Q60.25 4.00 60.87 2.77L60.87 2.77Q61.60 1.31 63 1.31L63 1.31Q64.29 1.31 65.00 2.47L65.00 2.47Q65.70 3.60 65.70 5.44L65.70 5.44Q65.70 6.91 65.23 7.76L65.23 7.76Q64.89 8.36 64.37 8.36L64.37 8.36Q63.86 8.36 63.69 7.74L63.69 7.74Q63.26 8.48 62.63 8.48L62.63 8.48Q61.59 8.48 61.59 6.60L61.59 6.60Q61.59 5.17 62.07 4.20L62.07 4.20Q62.46 3.40 63.06 3.40L63.06 3.40Q63.54 3.40 63.86 3.90L63.86 3.90ZM63.13 4.05L63.13 4.05Q62.82 4.05 62.58 4.62L62.58 4.62Q62.29 5.32 62.29 6.60L62.29 6.60Q62.29 7.78 62.76 7.78L62.76 7.78Q63.09 7.78 63.33 7.24L63.33 7.24Q63.64 6.53 63.64 5.33L63.64 5.33Q63.64 4.05 63.13 4.05ZM70.51 4.25L71.13 4.25L71.13 9.29Q71.13 11.67 68.94 11.67L68.94 11.67Q67.07 11.67 66.74 9.83L66.74 9.83L67.68 9.83Q67.84 10.87 68.96 10.87L68.96 10.87Q70.27 10.87 70.27 9.36L70.27 9.36L70.27 8.38Q69.64 9.12 68.76 9.12L68.76 9.12Q67.80 9.12 67.17 8.36L67.17 8.36Q66.60 7.66 66.60 6.61L66.60 6.61Q66.60 5.85 66.90 5.27L66.90 5.27Q67.53 4.02 68.81 4.02L68.81 4.02Q69.70 4.02 70.31 4.74L70.31 4.74L70.51 4.25ZM68.89 4.85L68.89 4.85Q68.23 4.85 67.83 5.43L67.83 5.43Q67.51 5.90 67.51 6.60L67.51 6.60Q67.51 7.32 67.87 7.81L67.87 7.81Q68.26 8.34 68.90 8.34L68.90 8.34Q69.43 8.34 69.80 7.93L69.80 7.93Q70.29 7.40 70.29 6.61L70.29 6.61Q70.29 5.82 69.87 5.31L69.87 5.31Q69.46 4.85 68.89 4.85ZM72.55 4.25L73.18 4.25L73.32 4.69Q73.83 4.02 74.38 4.02L74.38 4.02Q74.94 4.02 75.25 4.69L75.25 4.69Q75.78 4.02 76.42 4.02L76.42 4.02Q77.45 4.02 77.45 5.46L77.45 5.46L77.45 9.95L76.59 9.95L76.59 5.63Q76.59 4.79 76.17 4.79L76.17 4.79Q75.79 4.79 75.55 5.21L75.55 5.21Q75.42 5.47 75.42 5.78L75.42 5.78L75.42 9.95L74.58 9.95L74.58 5.61Q74.58 4.79 74.14 4.79L74.14 4.79Q73.41 4.79 73.41 5.77L73.41 5.77L73.41 9.95L72.55 9.95L72.55 4.25ZM79.79 5.91L78.83 5.91Q79.07 4.01 81.01 4.01L81.01 4.01Q82.96 4.01 82.96 6.11L82.96 6.11L82.96 8.97Q82.96 9.31 83.27 9.31L83.27 9.31Q83.37 9.31 83.55 9.27L83.55 9.27L83.55 10.11Q83.31 10.17 82.98 10.17L82.98 10.17Q82.19 10.17 82.08 9.29L82.08 9.29Q81.27 10.17 80.30 10.17L80.30 10.17Q79.66 10.17 79.25 9.84L79.25 9.84Q78.71 9.40 78.71 8.55L78.71 8.55Q78.71 6.58 82.10 6.35L82.10 6.35L82.10 6.11Q82.10 4.82 81.01 4.82L81.01 4.82Q79.88 4.82 79.79 5.91L79.79 5.91ZM82.10 7.89L82.10 7.10Q79.59 7.22 79.59 8.51L79.59 8.51Q79.59 9.37 80.44 9.37L80.44 9.37Q81.02 9.37 81.57 8.92L81.57 8.92Q82.10 8.51 82.10 7.89L82.10 7.89ZM86.47 2.63L86.47 1.55L87.53 1.55L87.53 2.63L86.47 2.63ZM86.53 9.95L86.53 4.25L87.47 4.25L87.47 9.95L86.53 9.95ZM93.47 1.55L93.47 8.64Q93.47 9.15 93.96 9.15L93.96 9.15Q94.37 9.15 94.85 9.06L94.85 9.06L94.85 9.96Q94.14 10.05 93.80 10.05L93.80 10.05Q92.53 10.05 92.53 8.81L92.53 8.81L92.53 1.55L93.47 1.55ZM97.10 10.61L97.10 9L98.71 9L98.71 10.61L97.10 10.61ZM106.31 8.04L107.28 8.04Q106.81 10.19 105.01 10.19L105.01 10.19Q103.93 10.19 103.29 9.29L103.29 9.29Q102.72 8.46 102.72 7.10L102.72 7.10Q102.72 5.81 103.26 4.98L103.26 4.98Q103.89 4.02 105 4.02L105 4.02Q106.72 4.02 107.19 5.96L107.19 5.96L106.22 5.96Q105.97 4.86 105.01 4.86L105.01 4.86Q104.40 4.86 104.04 5.42L104.04 5.42Q103.66 6.02 103.66 7.10L103.66 7.10Q103.66 7.99 103.92 8.56L103.92 8.56Q104.28 9.35 105.01 9.35L105.01 9.35Q106.08 9.35 106.31 8.04L106.31 8.04ZM111.01 4.02L111.01 4.02Q112.11 4.02 112.74 4.99L112.74 4.99Q113.28 5.80 113.28 7.10L113.28 7.10Q113.28 8.08 112.96 8.82L112.96 8.82Q112.36 10.19 110.99 10.19L110.99 10.19Q109.93 10.19 109.29 9.29L109.29 9.29Q108.72 8.46 108.72 7.10L108.72 7.10Q108.72 5.64 109.38 4.80L109.38 4.80Q110.02 4.02 111.01 4.02ZM110.99 4.86L110.99 4.86Q110.34 4.86 109.98 5.53L109.98 5.53Q109.66 6.12 109.66 7.10L109.66 7.10Q109.66 8.00 109.92 8.57L109.92 8.57Q110.29 9.35 111 9.35L111 9.35Q111.66 9.35 112.02 8.68L112.02 8.68Q112.34 8.09 112.34 7.11L112.34 7.11Q112.34 6.10 112.01 5.52L112.01 5.52Q111.65 4.86 110.99 4.86ZM114.55 4.25L115.18 4.25L115.32 4.69Q115.83 4.02 116.38 4.02L116.38 4.02Q116.94 4.02 117.25 4.69L117.25 4.69Q117.78 4.02 118.42 4.02L118.42 4.02Q119.45 4.02 119.45 5.46L119.45 5.46L119.45 9.95L118.59 9.95L118.59 5.63Q118.59 4.79 118.17 4.79L118.17 4.79Q117.79 4.79 117.55 5.21L117.55 5.21Q117.42 5.47 117.42 5.78L117.42 5.78L117.42 9.95L116.58 9.95L116.58 5.61Q116.58 4.79 116.14 4.79L116.14 4.79Q115.41 4.79 115.41 5.77L115.41 5.77L115.41 9.95L114.55 9.95L114.55 4.25Z"/>
</svg>
